<?xml version="1.0" encoding="UTF-8"?>
<!DOCTYPE svg PUBLIC "-//W3C//DTD SVG 1.1//EN" "http://www.w3.org/Graphics/SVG/1.1/DTD/svg11.dtd">
<!-- Creator: CorelDRAW X7 -->
<svg xmlns="http://www.w3.org/2000/svg" xml:space="preserve" width="236.142mm" height="38.2334mm" version="1.1" style="shape-rendering:geometricPrecision; text-rendering:geometricPrecision; image-rendering:optimizeQuality; fill-rule:evenodd; clip-rule:evenodd"
viewBox="0 0 25090 4062"
 xmlns:xlink="http://www.w3.org/1999/xlink">
 <defs>
  <style type="text/css">
   <![CDATA[
    .fil4 {fill:#FEFEFE}
    .fil2 {fill:#D2D3D5}
    .fil3 {fill:#E5E5E5}
    .fil6 {fill:black}
    .fil5 {fill:#FE6428}
    .fil0 {fill:#6C6C6C;fill-rule:nonzero}
    .fil1 {fill:#FE6127;fill-rule:nonzero}
   ]]>
  </style>
 </defs>
 <g id="Capa_x0020_1">
  <metadata id="CorelCorpID_0Corel-Layer"/>
  <g id="_3193261532304">
   <g>
    <path class="fil0" d="M5232 1171l0 2232 582 0 0 -1325 510 1105 430 0 509 -1105 0 1325 583 0 0 -2232 -710 0 -596 1238 -598 -1238 -710 0zm4702 108c-187,-99 -394,-150 -624,-150 -232,0 -439,51 -624,150 -184,99 -328,235 -433,411 -105,175 -159,372 -159,592 0,219 54,420 159,595 105,179 249,319 433,417 185,102 392,153 624,153 230,0 437,-51 624,-153 185,-98 332,-238 437,-417 105,-175 156,-376 156,-595 0,-220 -51,-417 -156,-592 -105,-176 -252,-312 -437,-411zm-885 481c83,-54 172,-80 271,-80 99,0 188,26 267,80 80,54 144,124 191,216 48,92 70,198 70,309 0,115 -22,216 -70,309 -47,92 -111,165 -191,220 -82,54 -172,82 -267,82 -99,0 -188,-28 -271,-82 -86,-55 -153,-128 -200,-220 -51,-93 -77,-198 -77,-309 0,-111 26,-217 77,-309 47,-92 114,-162 200,-216zm1529 -589l853 2232 688 0 862 -2232 -678 0 -509 1544 -510 -1544 -706 0zm2579 0l0 2232 662 0 0 -2232 -662 0z"/>
    <path class="fil1" d="M15908 1241c-137,-58 -284,-86 -434,-86 -226,0 -436,54 -630,165 -197,112 -353,265 -471,452 -118,191 -175,398 -175,621 0,191 44,366 137,522 89,156 213,281 372,370 159,92 338,137 535,137 150,0 303,-32 452,-93 150,-60 284,-143 405,-248l-137 -169c-99,86 -207,150 -325,198 -121,47 -242,73 -363,73 -153,0 -293,-35 -417,-108 -124,-74 -223,-169 -293,-293 -73,-125 -108,-261 -108,-411 0,-175 44,-341 137,-490 92,-150 213,-271 369,-360 153,-89 318,-134 497,-134 121,0 235,26 347,73 108,48 203,118 283,207l169 -184c-96,-102 -213,-182 -350,-242zm881 1926l402 -1993 -255 0 -446 2229 1232 0 45 -236 -978 0zm3009 236l274 0 -630 -2229 -261 0 -1366 2229 267 0 344 -570 1216 0 156 570zm-1232 -803l694 -1156 319 1156 -1013 0zm3725 -270c115,-150 172,-335 172,-554 0,-191 -63,-341 -194,-446 -130,-105 -315,-156 -554,-156l-847 0 -446 2229 255 0 143 -707 593 0c35,0 83,-3 146,-7l322 714 293 0 -373 -755c210,-61 373,-166 490,-318zm-277 -39c-133,112 -318,169 -557,169l-592 0 213 -1051 593 0c175,0 312,35 404,105 92,74 140,176 140,309 0,201 -67,357 -201,468zm2560 -1003c-162,-89 -344,-133 -544,-133 -226,0 -439,54 -634,165 -197,112 -353,265 -471,452 -118,188 -175,395 -175,618 0,194 45,369 137,525 92,156 216,281 379,370 162,92 340,137 541,137 226,0 439,-58 637,-169 194,-112 353,-264 471,-455 118,-191 175,-398 175,-621 0,-191 -44,-366 -137,-522 -92,-156 -216,-277 -379,-367zm-1054 236c156,-89 319,-134 494,-134 150,0 290,35 414,105 124,74 223,169 296,293 70,124 105,261 105,411 0,175 -45,341 -137,490 -92,153 -216,274 -369,363 -156,93 -318,137 -494,137 -153,0 -293,-35 -417,-108 -124,-73 -223,-172 -296,-296 -73,-124 -108,-261 -108,-411 0,-175 48,-341 140,-490 92,-150 216,-271 372,-360z"/>
   </g>
   <g id="logo.cdr">
    <path class="fil2" d="M1968 3512c0,-31 -1,-45 16,-73 17,-28 34,-46 63,-60 18,-8 34,-13 55,-13 45,0 87,25 111,55 16,20 27,49 27,76 0,36 -16,81 -35,99 -24,23 -50,37 -94,42 -42,5 -74,-14 -98,-34 -15,-12 -20,-18 -31,-38 -7,-13 -14,-38 -14,-54zm-1047 -1307c-1,-12 4,-24 5,-35 3,-19 9,-24 22,-40 3,-3 6,-8 9,-11 5,-5 18,-13 24,-17 11,-9 26,-17 42,-25l0 3c7,1 8,0 9,8 1,5 0,15 1,21l26 328c2,26 5,93 10,121l-8 -4c-10,-4 -24,-21 -32,-29 -13,-14 -35,-42 -43,-59 -42,-101 -57,-146 -65,-261zm304 -175c3,0 7,0 10,-1 24,-3 51,-4 77,-4 72,-1 79,-3 154,5 53,6 105,25 148,57 40,29 51,99 51,153 0,66 -4,145 -42,200 -30,45 -20,26 -65,58 -16,11 -65,32 -83,38 -26,10 -71,18 -98,25 -12,3 -24,3 -36,5 -12,1 -23,5 -35,6 -12,1 -24,2 -37,3l-8 1c0,-9 -4,-1 -5,-15 -1,-8 -1,-16 -2,-24l-29 -351c-2,-15 -2,-34 -3,-50 -2,-21 -11,-83 -8,-100 2,-1 4,-1 6,-3l5 -2 0 -1zm1679 -114c5,5 10,10 13,13 29,40 32,119 32,172 0,49 -7,96 -17,141 -1,2 -2,4 -3,7 0,-11 1,-21 -1,-31 -3,-12 -4,-18 -5,-33l-10 -112c-1,-24 -2,-48 -5,-72 -1,-13 -6,-63 -4,-73 1,-6 1,-9 0,-12zm-157 487c-36,7 -107,16 -127,17 -36,1 -115,3 -150,0 -8,-1 -65,-10 -70,-11 -38,-14 -65,-21 -94,-48 -6,-6 -7,-6 -12,-10 -8,-8 -24,-36 -32,-49 -32,-55 -44,-130 -49,-196 -2,-31 -3,-44 10,-69 6,-12 8,-15 16,-25l19 -21c40,-46 162,-88 227,-100l104 -18c13,-1 25,-1 38,-3 12,-1 23,-4 36,-5 10,-1 20,-1 31,-1l0 0c8,5 8,4 9,15 0,7 1,13 1,20 1,14 2,29 3,43 2,28 7,58 8,85 1,30 4,57 6,86 3,29 4,57 7,85 5,56 10,114 14,171 1,12 3,22 5,34zm367 -635c-14,-7 -92,-4 -115,-4 -38,1 -78,-1 -115,0 0,-2 0,-3 0,-5 2,-18 5,-1 2,-35l-17 -221c-4,-49 -9,-98 -11,-147 -2,-24 -5,-48 -7,-72 -3,-72 -11,-146 -17,-219 -3,-50 -9,-83 -36,-123 -16,-23 -8,-18 -34,-44 -44,-44 -107,-68 -171,-68 -65,0 -154,11 -222,16 -25,2 -49,2 -75,5 -72,7 -147,11 -218,16 -74,6 -147,13 -221,17 -25,1 -49,4 -74,6l-221 16c-48,4 -98,8 -146,12 -67,5 -242,13 -290,28 -21,6 -39,13 -54,24 -32,23 -9,1 -44,36 -21,21 -48,61 -58,101 -2,10 -6,21 -7,31 -7,53 8,206 13,259 14,147 21,294 35,440 2,24 5,49 6,73l5 54c-1,7 -4,3 -10,9l0 2c-10,2 -21,4 -31,5 -19,2 -33,6 -52,9 -9,1 -15,3 -24,6 -8,2 -16,2 -25,4 -31,8 -64,17 -96,24 -10,3 -16,2 -26,6 -8,2 -16,4 -24,5 -32,7 -34,8 -32,25 5,28 1,48 15,74 8,13 62,40 77,44 21,6 11,13 17,43 5,22 12,48 16,74l39 142c5,15 11,27 17,42 28,73 43,125 100,172 27,23 60,36 96,44 2,51 17,209 19,247 3,48 7,98 12,146 5,50 7,99 12,148 8,97 13,195 22,293 5,48 8,95 14,143 4,32 36,86 55,105 18,18 41,40 64,52 8,4 21,9 29,12 49,16 91,13 144,10 50,-4 98,-8 148,-11 24,-1 48,-4 72,-6l368 -27c49,-4 98,-8 147,-11 25,-1 49,-4 74,-6 25,-2 50,-3 74,-5 25,-2 47,-5 73,-6 49,-2 95,-8 148,-10 24,-1 49,-6 73,-7 25,-2 49,-2 73,-5 59,-6 156,-5 203,-36 37,-24 59,-37 82,-76 12,-22 15,-25 27,-50 7,-15 12,-49 13,-68 2,-28 0,-45 -2,-72 -7,-73 -11,-148 -18,-222 -4,-48 -7,-97 -11,-145 -5,-49 -8,-99 -11,-148 -2,-25 -5,-47 -7,-72 -1,-25 -2,-50 -5,-75 -6,-48 -7,-98 -12,-147l-14 -182c1,-8 3,-7 5,-13 4,-5 8,-9 12,-13 4,-4 3,-2 7,-7 18,-21 34,-48 44,-77 18,-49 12,-49 21,-100 7,-36 11,-66 12,-104 1,-39 4,-76 2,-115 -1,-11 -3,-108 -1,-111 2,-5 28,-20 35,-25l29 -30c17,-20 9,-78 3,-100zm-427 8c-32,3 -65,6 -90,9 -18,3 -33,5 -52,7 -18,1 -33,6 -53,8 -19,2 -78,15 -100,21 -45,13 -97,24 -140,38l-68 22c-9,2 -14,5 -22,8 -37,13 -31,11 -69,22 -27,7 -50,11 -77,14 -19,2 -34,3 -53,7 -18,3 -36,3 -55,5 -61,8 -165,22 -223,14 -48,-7 -114,-16 -160,-16 -39,0 -79,-1 -118,-1 -70,0 -132,4 -197,11 0,-4 0,1 -4,-6l-5 -60c-5,-53 -10,-107 -14,-160 -4,-53 -13,-110 -3,-161 13,-68 34,-96 79,-140 5,-6 17,-11 25,-17 18,-13 35,-19 58,-29 11,-4 60,-12 75,-13 28,-1 54,-3 81,-6 27,-3 54,-3 82,-5 134,-11 270,-20 404,-31 53,-5 109,-9 162,-12 28,-2 54,-4 81,-6 27,-3 55,-4 82,-6 46,-4 118,-12 164,-4 40,7 88,30 118,56 16,15 48,55 56,76l11 31c13,47 14,104 18,156 2,27 6,53 7,80l8 80c-6,4 -5,2 -8,7 0,0 0,1 0,1zm-1423 921c49,-6 94,-16 142,-24 49,-8 97,-22 142,-37 67,-24 99,-53 141,-100 19,-22 49,-66 58,-92 3,-7 6,-15 8,-22 4,-8 6,-14 8,-22 13,-35 10,-35 20,-71 5,-18 5,-33 8,-51 3,-26 9,-83 19,-101 4,-7 9,-12 13,-19 32,-44 91,-69 144,-59 34,5 60,13 83,37 5,5 12,10 16,15 16,21 45,106 65,145 12,23 16,38 31,58 5,6 7,10 12,18 32,49 41,58 86,95l35 25c33,20 98,42 136,45 58,4 114,2 169,0 19,0 40,-1 56,-2 11,0 66,-6 93,-10 0,1 0,2 0,3 9,9 5,2 7,20 1,8 1,17 2,26 5,64 29,318 24,356 -4,25 -16,62 -27,82 -8,13 -14,21 -22,32 -17,26 -33,37 -56,53 -63,44 -154,40 -224,47l-203 14c-33,2 -66,7 -99,8 -35,2 -68,6 -101,8 -34,3 -67,5 -100,8 -63,5 -141,8 -202,14 -35,3 -68,6 -102,8 -62,3 -138,20 -198,-5 -12,-5 -27,-10 -37,-16 -7,-3 -10,-7 -17,-11 -36,-27 -21,-19 -43,-38 -21,-18 -52,-79 -55,-107 -10,-98 -20,-202 -26,-299 -1,-13 -4,-13 -6,-23 0,-3 0,-6 0,-8zm1103 -422c27,0 36,-15 49,-30 3,-4 6,-8 11,-15 24,-36 121,-47 126,31 2,23 4,63 44,62 14,0 28,-6 37,-13 12,-11 15,-16 15,-37 2,-79 -63,-166 -149,-166 -61,0 -99,18 -140,57 -12,11 -33,36 -37,58 -3,15 1,30 9,38 3,3 26,15 35,15zm-923 29c37,0 56,21 76,37 9,7 11,13 24,16 9,2 22,2 30,-3 19,-12 30,-23 27,-49 -2,-12 -8,-18 -13,-25 -23,-31 -52,-46 -91,-61 -38,-16 -91,-9 -126,6 -18,8 -33,21 -44,32 -9,10 -24,32 -29,47 -8,23 -12,33 -14,58 -1,22 0,51 12,65 12,13 35,20 58,12 26,-8 26,-31 24,-50 -4,-51 17,-85 66,-85zm-342 -2268c-11,2 -22,3 -32,5 -21,3 -82,15 -96,21 -17,7 -43,11 -61,17 -19,7 -38,14 -57,21 -50,20 -113,45 -161,72 -17,10 -32,19 -49,29 -45,25 -53,31 -94,61l-45 33c-27,24 -60,48 -84,72 -22,23 -74,77 -93,102 -3,3 -5,7 -8,10 -4,5 -6,6 -10,11 -13,17 -16,16 -33,42 -11,15 -23,31 -32,46l-31 47c-46,74 -72,128 -103,209 -7,18 -15,38 -21,56 -11,30 -26,92 -32,124 -18,94 -17,122 -25,209 -3,28 2,39 15,59 26,45 96,55 134,27 6,-4 18,-12 23,-17 31,-31 31,-78 35,-120 2,-26 5,-45 9,-69 16,-114 62,-252 120,-347l94 -139c28,-38 97,-107 134,-137 8,-7 13,-13 20,-19 9,-7 11,-12 20,-19 6,-5 16,-10 23,-15 16,-12 30,-22 46,-32l99 -57c18,-9 35,-16 53,-25 46,-22 155,-56 206,-67 11,-2 22,-2 33,-5 34,-9 70,-10 91,-26 8,-6 15,-10 21,-19 8,-14 20,-39 20,-57 0,-22 -9,-46 -19,-59 -5,-6 -14,-17 -19,-21 -7,-6 -14,-10 -23,-15 -17,-10 -48,-12 -68,-8zm43 402c-26,5 -61,11 -85,20 -41,14 -71,24 -113,42 -29,13 -80,38 -103,54 -13,9 -17,10 -32,21 -9,7 -20,14 -30,22 -39,32 -90,75 -121,113l-38 43c-8,10 -13,19 -21,30 -78,114 -107,193 -141,328 -3,12 -12,82 -11,95 0,15 5,29 12,40 11,21 5,16 22,30 9,7 20,15 33,19 26,8 68,6 85,-9 23,-19 35,-23 44,-60 4,-15 6,-28 9,-43 8,-63 22,-112 45,-165 12,-29 37,-75 53,-102 7,-13 15,-20 22,-32 11,-15 46,-56 61,-69 5,-5 8,-7 13,-13 9,-10 20,-16 29,-25 9,-9 17,-16 28,-23 12,-8 19,-15 30,-22 28,-17 70,-41 102,-54 13,-5 24,-9 37,-14 60,-24 113,-19 153,-58 4,-4 7,-7 11,-14l10 -16c3,-7 9,-36 8,-44 -4,-31 -13,-49 -34,-70 -13,-13 -51,-29 -78,-24zm1003 2079c-10,0 -77,6 -86,10 -9,3 -28,18 -6,34 16,11 64,-3 85,7 -4,17 -28,38 -38,48 -25,24 -89,42 -131,39 -60,-3 -62,-10 -106,-20 -12,-3 -19,-10 -35,-7 -41,7 42,75 156,75 42,0 43,1 88,-11 23,-6 48,-23 65,-39 5,-6 11,-11 17,-17 18,-18 16,-35 33,-34 6,9 9,18 14,28 19,41 49,11 37,-20 -20,-58 -26,-93 -93,-93zm397 -1552c30,-7 51,1 71,13 51,32 57,133 -31,158 -25,6 -50,0 -71,-14 -9,-6 -15,-14 -21,-24 -8,-14 -7,-12 -13,-29 -6,-16 -3,-21 -1,-38 4,-29 34,-59 66,-66z"/>
    <path class="fil3" d="M2944 3620c246,47 397,110 397,180 0,145 -656,262 -1464,262 -808,0 -1463,-117 -1463,-262 0,-95 281,-179 703,-225 2,21 4,41 7,62 4,32 36,86 55,105 18,18 41,40 64,52 8,4 21,9 29,12 49,16 91,13 144,9 50,-3 97,-7 147,-10 25,-1 49,-4 73,-6l368 -28c49,-3 98,-7 147,-10 25,-1 48,-5 74,-6 24,-2 50,-3 74,-5 25,-2 47,-5 72,-6 50,-2 96,-8 149,-10 24,-2 49,-6 72,-7 26,-2 50,-2 74,-5 59,-6 156,-5 203,-36 33,-22 55,-35 75,-66z"/>
    <path class="fil4" d="M3080 1734c-15,-8 -93,-5 -116,-4 -37,1 -77,-1 -115,0 1,-2 1,-4 1,-5 2,-19 5,-1 2,-35l-17 -222c-5,-48 -9,-97 -12,-146 -1,-24 -5,-48 -6,-72 -4,-72 -12,-146 -17,-219 -4,-50 -9,-84 -37,-123 -16,-23 -8,-19 -33,-44 -44,-44 -107,-68 -171,-68 -65,0 -154,11 -222,16 -26,2 -50,2 -75,4 -73,8 -147,12 -219,17 -73,6 -146,13 -220,17 -25,1 -49,4 -74,6l-221 16c-48,3 -98,8 -147,12 -66,4 -242,13 -289,28 -21,6 -39,13 -54,24 -32,23 -10,1 -44,35 -22,22 -48,62 -58,102 -2,10 -6,21 -8,31 -6,53 9,206 14,259 14,147 21,293 35,439 2,25 4,49 5,74l6 54c-2,7 -4,3 -10,9l0 2c-10,2 -21,3 -31,4 -19,2 -33,7 -52,10 -10,1 -15,3 -24,5 -8,3 -16,3 -25,5 -31,7 -65,17 -96,24 -11,2 -17,2 -27,5 -7,3 -15,5 -23,6 -32,7 -35,8 -32,24 5,29 0,49 15,74 8,14 62,41 76,45 22,5 12,13 18,43 5,22 12,47 16,73l39 143c5,15 11,27 17,42 28,73 43,125 100,172 27,22 60,36 96,44 2,50 16,209 19,247 3,48 7,98 12,146 4,49 7,99 11,148 8,97 14,195 23,292 5,49 8,96 14,144 4,32 36,86 55,105 18,18 41,40 64,52 8,3 21,9 29,12 49,16 91,13 144,9 50,-3 97,-7 147,-10 25,-1 49,-4 73,-6l368 -28c49,-3 98,-7 147,-10 25,-1 48,-5 74,-6 24,-2 50,-3 74,-5 25,-2 47,-5 72,-6 50,-2 96,-8 149,-10 24,-2 49,-6 72,-7 26,-2 50,-2 74,-5 59,-6 156,-5 203,-36 37,-24 59,-38 81,-76 13,-22 16,-25 28,-50 7,-15 11,-49 13,-68 1,-28 0,-45 -2,-72 -7,-73 -11,-148 -18,-222 -5,-49 -7,-97 -12,-145 -4,-50 -8,-100 -11,-148 -1,-25 -4,-48 -6,-73 -2,-24 -3,-49 -5,-74 -6,-48 -7,-99 -12,-147l-14 -182c0,-8 3,-7 4,-14 5,-4 9,-8 13,-12 3,-4 3,-3 7,-7 18,-21 33,-48 44,-77 18,-49 11,-50 21,-100 7,-36 11,-67 12,-104 1,-39 4,-76 2,-115 -1,-12 -3,-108 -2,-111 3,-5 29,-20 36,-25l29 -31c17,-20 8,-78 3,-99zm-1970 -1330c-25,5 -60,11 -84,19 -41,15 -71,25 -113,43 -29,12 -80,38 -103,54 -13,9 -18,10 -32,21 -9,7 -21,14 -30,21 -39,33 -90,76 -122,114l-37 43c-8,10 -13,19 -21,30 -79,114 -107,193 -141,328 -3,12 -12,82 -12,95 1,15 6,29 13,40 11,20 4,16 22,30 8,7 20,15 33,19 26,8 67,5 85,-9 22,-19 35,-23 44,-60 4,-15 6,-28 8,-44 9,-62 23,-111 46,-164 12,-29 37,-75 53,-103 7,-12 14,-19 22,-31 11,-16 46,-56 61,-69 5,-5 8,-8 13,-13 9,-10 20,-16 29,-25 9,-9 16,-16 28,-24 11,-8 19,-14 30,-21 27,-17 70,-42 102,-54 13,-5 24,-9 37,-15 59,-23 112,-19 152,-57 5,-4 8,-7 12,-14l10 -17c3,-6 9,-35 8,-43 -4,-31 -14,-49 -34,-70 -13,-14 -52,-29 -79,-24zm-42 -402c-11,2 -22,2 -33,4 -20,4 -81,15 -95,21 -17,8 -43,12 -61,18 -20,7 -38,13 -57,21 -51,20 -113,45 -161,72 -17,10 -32,19 -49,29 -45,25 -53,31 -94,61l-46 33c-27,24 -59,48 -83,72 -22,22 -75,77 -93,102 -3,3 -5,7 -8,10 -4,5 -6,6 -10,11 -13,17 -16,16 -34,42 -10,15 -22,30 -32,46l-31 47c-45,74 -71,128 -102,209 -7,18 -15,38 -21,56 -11,30 -26,92 -32,124 -19,94 -17,122 -25,208 -3,29 2,40 14,60 27,44 96,55 135,27 6,-5 18,-12 23,-17 31,-31 31,-78 35,-120 2,-26 5,-45 9,-69 16,-114 62,-252 119,-348l95 -139c28,-38 96,-106 133,-137 8,-6 14,-13 21,-18 8,-7 11,-12 20,-19 6,-5 16,-10 23,-16 16,-11 30,-21 46,-32l99 -56c18,-9 35,-16 53,-25 46,-22 155,-57 206,-67 11,-2 22,-3 33,-5 34,-9 69,-10 91,-26 8,-7 15,-10 20,-19 9,-14 21,-39 21,-58 0,-21 -10,-45 -20,-59 -4,-6 -13,-16 -18,-20 -7,-6 -14,-10 -24,-15 -16,-10 -48,-12 -67,-8z"/>
    <g>
     <path class="fil5" d="M1934 3477c0,-30 -1,-44 16,-73 17,-28 34,-45 63,-59 18,-8 34,-13 54,-13 45,0 87,25 111,55 16,20 28,49 28,76 0,36 -16,80 -36,99 -23,23 -49,37 -93,42 -42,5 -74,-15 -98,-34 -16,-12 -20,-18 -31,-38 -7,-13 -14,-39 -14,-55zm-743 -1480c-3,-12 -4,-27 -6,-39 -1,-5 -3,-13 -4,-19 -1,-5 -4,-9 -5,-17 -1,-21 1,-7 -4,-18l-6 -59c-4,-53 -9,-107 -13,-161 -4,-52 -14,-109 -3,-161 13,-68 34,-95 78,-139 6,-6 17,-12 26,-18 17,-12 35,-19 58,-28 11,-5 60,-13 75,-13 27,-1 54,-3 81,-6 27,-3 54,-3 82,-5 134,-11 270,-20 404,-32 53,-4 109,-8 162,-11 28,-2 54,-4 81,-7 27,-2 55,-3 82,-5 46,-4 117,-13 164,-5 40,7 88,31 117,57 17,14 48,55 56,75l12 32c13,47 14,104 18,156 2,27 5,53 7,80l7 80c-5,4 -4,2 -7,7 -3,13 6,61 6,67 1,9 -1,11 1,22 8,5 8,4 8,14 1,8 2,14 2,21 1,14 1,29 3,43 2,28 6,58 7,85 1,30 4,57 7,86 3,29 4,57 6,84 5,57 11,115 15,172 1,14 4,26 5,41 2,18 4,103 2,117 9,10 5,3 7,20 1,8 1,17 2,27 4,64 28,317 24,355 -4,26 -16,63 -28,83 -7,13 -14,20 -21,32 -17,26 -33,36 -57,53 -62,43 -153,40 -223,46l-203 15c-33,2 -66,7 -99,8 -35,2 -68,5 -102,8 -34,3 -66,4 -100,7 -63,6 -140,9 -202,15 -34,3 -67,5 -102,8 -61,3 -137,20 -197,-5 -12,-5 -27,-10 -38,-16 -6,-3 -10,-7 -16,-12 -36,-26 -21,-18 -44,-37 -20,-18 -52,-79 -54,-107 -11,-98 -20,-202 -27,-300 -1,-12 -3,-12 -5,-22 -1,-9 1,-14 0,-23 0,-9 1,-17 -1,-27 -1,-7 -5,-12 -5,-20 -2,-17 1,-37 2,-54 2,-17 -3,-5 -5,-20 0,-8 0,-16 -1,-24l-29 -351c-2,-16 -2,-34 -4,-50 -1,-21 -10,-83 -7,-100 2,-1 3,-1 6,-3l5 -2zm1320 -1066c30,-7 51,0 71,13 51,32 57,133 -31,157 -25,7 -50,0 -71,-14 -9,-6 -15,-13 -21,-23 -8,-14 -8,-13 -13,-30 -6,-15 -4,-20 -1,-37 4,-29 34,-59 66,-66zm-1533 1008l11 107c7,1 7,0 9,8 0,5 0,15 1,20l26 328c2,28 5,99 10,125 1,8 0,12 0,20 0,13 4,25 3,35 0,10 -1,26 0,35 0,12 7,16 7,32 -1,31 16,216 19,258 3,48 7,98 12,146 4,49 7,99 11,148 8,97 14,195 23,292 5,49 8,96 14,144 4,32 36,86 55,105 18,18 41,40 64,52 8,3 21,9 29,12 49,16 91,13 144,9 50,-3 97,-7 147,-10 25,-1 49,-4 73,-6l368 -28c49,-3 98,-7 147,-10 25,-1 48,-5 74,-6 24,-2 50,-3 74,-5 25,-2 47,-5 72,-6 50,-2 96,-8 149,-10 24,-2 49,-6 72,-7 26,-2 50,-2 74,-5 59,-6 156,-5 203,-36 37,-24 59,-38 81,-76 13,-22 16,-25 28,-50 7,-15 11,-49 13,-68 1,-28 0,-45 -2,-72 -7,-73 -11,-148 -18,-222 -5,-49 -7,-97 -12,-145 -4,-50 -8,-100 -11,-148 -1,-25 -4,-48 -6,-73 -2,-24 -3,-49 -5,-74 -6,-48 -7,-99 -12,-147l-14 -182c0,-8 3,-7 5,-14l0 -59c0,-14 -1,-25 -2,-39 0,-14 -5,-19 -7,-31 -3,-14 -2,-20 -6,-33 -9,-24 -3,-47 -7,-69 -3,-13 -5,-18 -6,-34l-9 -111c-1,-24 -2,-49 -5,-72 -1,-13 -6,-63 -4,-73 3,-16 -4,-14 -4,-31 0,-15 -1,-24 -3,-37 -2,-13 -3,-22 -5,-35 -1,-17 -12,-28 -8,-66 2,-19 5,-1 2,-35l-17 -222c-5,-48 -9,-97 -12,-146 -1,-24 -5,-48 -6,-72 -4,-72 -12,-146 -17,-219 -4,-50 -9,-84 -37,-123 -16,-23 -8,-19 -33,-44 -44,-44 -107,-68 -171,-68 -65,0 -154,11 -222,16 -26,2 -50,2 -75,4 -73,8 -147,12 -219,17 -73,6 -146,13 -220,17 -25,1 -49,4 -74,6l-221 16c-48,3 -98,8 -147,12 -66,4 -242,13 -289,28 -21,6 -39,13 -54,24 -32,23 -10,1 -44,35 -22,22 -48,62 -58,102 -2,10 -6,21 -8,31 -6,53 9,206 14,259 14,147 21,293 35,439 2,25 4,49 5,74l6 54c-2,7 -4,3 -10,9z"/>
     <path class="fil5" d="M1068 2c-11,2 -22,2 -33,4 -20,4 -81,15 -95,21 -17,8 -43,12 -61,18 -20,7 -38,13 -57,21 -51,20 -113,45 -161,72 -17,10 -32,19 -49,29 -45,25 -53,31 -94,61l-46 33c-27,24 -59,48 -83,72 -22,22 -75,77 -93,102 -3,3 -5,7 -8,10 -4,5 -6,6 -10,11 -13,17 -16,16 -34,42 -10,15 -22,30 -32,46l-31 47c-45,74 -71,128 -102,209 -7,18 -15,38 -21,56 -11,30 -26,92 -32,124 -19,94 -17,122 -25,208 -3,29 2,40 14,60 27,44 96,55 135,27 6,-5 18,-12 23,-17 31,-31 31,-78 35,-120 2,-26 5,-45 9,-69 16,-114 62,-252 119,-348l95 -139c28,-38 96,-106 133,-137 8,-6 14,-13 21,-18 8,-7 11,-12 20,-19 6,-5 16,-10 23,-16 16,-11 30,-21 46,-32l99 -56c18,-9 35,-16 53,-25 46,-22 155,-57 206,-67 11,-2 22,-3 33,-5 34,-9 69,-10 91,-26 8,-7 15,-10 20,-19 9,-14 21,-39 21,-58 0,-21 -10,-45 -20,-59 -4,-6 -13,-16 -18,-20 -7,-6 -14,-10 -24,-15 -16,-10 -48,-12 -67,-8z"/>
     <path class="fil5" d="M1110 404c-25,5 -60,11 -84,19 -41,15 -71,25 -113,43 -29,12 -80,38 -103,54 -13,9 -18,10 -32,21 -9,7 -21,14 -30,21 -39,33 -90,76 -122,114l-37 43c-8,10 -13,19 -21,30 -79,114 -107,193 -141,328 -3,12 -12,82 -12,95 1,15 6,29 13,40 11,20 4,16 22,30 8,7 20,15 33,19 26,8 67,5 85,-9 22,-19 35,-23 44,-60 4,-15 6,-28 8,-44 9,-62 23,-111 46,-164 12,-29 37,-75 53,-103 7,-12 14,-19 22,-31 11,-16 46,-56 61,-69 5,-5 8,-8 13,-13 9,-10 20,-16 29,-25 9,-9 16,-16 28,-24 11,-8 19,-14 30,-21 27,-17 70,-42 102,-54 13,-5 24,-9 37,-15 59,-23 112,-19 152,-57 5,-4 8,-7 12,-14l10 -17c3,-6 9,-35 8,-43 -4,-31 -14,-49 -34,-70 -13,-14 -52,-29 -79,-24z"/>
    </g>
    <g>
     <path class="fil6" d="M887 2171c-1,-12 3,-24 5,-36 3,-18 9,-23 22,-39 3,-3 6,-8 9,-11 5,-6 18,-13 24,-17 26,-21 73,-42 113,-50 23,-5 44,-11 67,-15 22,-4 50,-5 74,-8 24,-3 51,-4 77,-5 72,0 79,-3 154,6 53,6 105,25 148,56 40,30 51,100 51,154 0,66 -4,145 -42,200 -30,45 -20,25 -65,57 -16,12 -65,32 -83,39 -27,10 -71,18 -98,25 -12,3 -24,2 -37,4 -11,2 -22,6 -34,7 -12,1 -24,2 -37,3 -54,4 -56,7 -111,4 -14,0 -23,-4 -35,-5 -32,-5 -37,-7 -62,-20 -10,-5 -25,-21 -32,-29 -13,-14 -35,-42 -43,-60 -43,-100 -57,-146 -65,-260zm1779 -342c40,-3 106,6 143,17 7,2 9,4 14,6 6,3 10,3 15,6 11,4 18,10 24,16 6,6 17,16 20,21 29,40 33,119 33,172 -1,49 -7,96 -18,141 -2,9 -8,21 -11,30 -9,28 -13,30 -26,54 -6,10 -11,15 -19,22 -16,16 -26,20 -51,31 -34,14 -31,10 -61,20 -21,7 -119,19 -143,20 -36,2 -116,4 -150,0 -8,0 -65,-9 -70,-11 -38,-13 -65,-20 -95,-48 -5,-5 -7,-5 -11,-9 -9,-8 -24,-36 -32,-49 -32,-55 -45,-130 -49,-196 -2,-32 -4,-45 9,-69 7,-12 9,-15 17,-25l19 -21c40,-46 162,-88 226,-100l105 -18c13,-1 24,-2 38,-3 12,-2 23,-4 35,-5 13,-2 26,-1 38,-2zm414 -95c-15,-8 -93,-5 -116,-4 -39,1 -81,-2 -120,0 -39,1 -76,3 -115,6 -45,4 -121,8 -166,15 -19,3 -34,5 -53,7 -17,1 -32,6 -52,8 -19,2 -79,15 -100,21 -45,13 -97,24 -140,38l-69 22c-8,2 -13,5 -21,8 -38,13 -31,11 -70,21 -26,7 -49,12 -76,15 -19,2 -34,3 -53,6 -18,3 -37,4 -55,6 -61,7 -165,22 -223,14 -48,-7 -114,-16 -160,-16 -40,0 -79,-1 -119,-1 -95,0 -176,7 -271,20 -18,3 -33,7 -51,9 -34,3 -70,13 -103,16 -19,2 -33,7 -52,10 -10,1 -15,3 -24,5 -8,3 -16,3 -25,5 -31,7 -65,17 -96,24 -11,2 -17,2 -27,5 -7,3 -15,5 -23,6 -32,7 -35,8 -32,24 5,29 0,49 15,74 8,14 62,41 76,45 22,5 12,13 18,43 5,22 12,47 16,73l39 143c5,15 11,27 17,42 28,73 43,125 100,172 68,57 179,58 266,48 55,-5 104,-17 157,-25 48,-8 97,-22 142,-38 67,-23 99,-52 141,-100 19,-21 49,-66 58,-91 3,-7 5,-15 8,-22 3,-8 5,-14 8,-22 13,-36 10,-35 20,-71 5,-18 5,-33 7,-51 4,-26 10,-83 20,-101 4,-8 8,-12 13,-19 32,-44 91,-69 144,-60 33,6 60,13 83,37 5,6 11,11 16,16 16,20 44,106 65,145 11,22 15,37 31,58 5,6 6,10 11,18 32,48 42,58 87,95l35 24c33,21 98,43 136,46 57,3 114,2 169,0 19,-1 40,-1 55,-2 15,0 98,-10 108,-13 56,-17 67,-4 148,-47 4,-2 6,-2 11,-4 13,-7 30,-23 40,-34 3,-4 3,-3 7,-7 18,-21 33,-48 44,-77 18,-49 11,-50 21,-100 7,-36 11,-67 12,-104 1,-39 4,-76 2,-115 -1,-12 -3,-108 -2,-111 3,-5 29,-20 36,-25l29 -31c17,-20 8,-78 3,-99z"/>
     <path class="fil6" d="M2332 2241c28,0 37,-15 49,-30 4,-5 7,-8 11,-15 25,-36 121,-47 127,30 2,24 4,63 43,63 15,-1 29,-6 38,-14 12,-10 14,-15 15,-36 2,-80 -63,-166 -149,-166 -61,0 -99,18 -140,56 -12,12 -33,36 -37,59 -3,15 1,30 9,38 3,3 26,15 34,15z"/>
     <path class="fil6" d="M1409 2269c38,0 57,22 77,38 9,7 10,12 24,16 9,2 22,1 30,-3 19,-12 30,-23 27,-49 -2,-12 -8,-18 -14,-25 -22,-31 -51,-46 -90,-62 -39,-15 -92,-8 -126,7 -18,8 -33,21 -44,32 -10,10 -24,31 -29,47 -9,23 -12,32 -14,58 -1,22 0,50 12,64 12,14 35,21 58,13 26,-8 26,-31 24,-51 -4,-50 17,-85 65,-85z"/>
     <path class="fil6" d="M2114 2483c-10,0 -77,6 -86,10 -9,3 -28,18 -7,33 16,12 65,-2 85,8 -3,16 -27,37 -37,48 -25,24 -89,41 -131,39 -60,-3 -62,-11 -106,-20 -12,-3 -19,-10 -35,-7 -41,7 41,75 155,75 43,0 43,0 89,-11 22,-6 48,-24 64,-40 6,-5 12,-10 18,-16 18,-18 16,-35 33,-34 5,9 9,18 14,28 19,40 48,11 37,-20 -20,-58 -26,-93 -93,-93z"/>
    </g>
   </g>
  </g>
 </g>
</svg>
