<?xml version="1.0" encoding="UTF-8"?>
<!DOCTYPE svg PUBLIC "-//W3C//DTD SVG 1.1//EN" "http://www.w3.org/Graphics/SVG/1.1/DTD/svg11.dtd">
<!-- Creator: CorelDRAW X7 -->
<svg xmlns="http://www.w3.org/2000/svg" xml:space="preserve" width="81.7327mm" height="51.898mm" version="1.1" style="shape-rendering:geometricPrecision; text-rendering:geometricPrecision; image-rendering:optimizeQuality; fill-rule:evenodd; clip-rule:evenodd"
viewBox="0 0 18593 11806"
 xmlns:xlink="http://www.w3.org/1999/xlink">
 <defs>
  <style type="text/css">
   <![CDATA[
    .fil3 {fill:#FEFEFE}
    .fil5 {fill:black}
    .fil2 {fill:#6C6C6C}
    .fil4 {fill:#FE6127}
    .fil0 {fill:#FEFEFE;fill-rule:nonzero}
    .fil1 {fill:#FE6127;fill-rule:nonzero}
   ]]>
  </style>
 </defs>
 <g id="Capa_x0020_1">
  <metadata id="CorelCorpID_0Corel-Layer"/>
  <g id="_3193258161680">
   <path class="fil0" d="M0 39l0 2090 546 0 0 -1241 477 1035 402 0 477 -1035 0 1241 546 0 0 -2090 -665 0 -558 1159 -560 -1159 -665 0zm4403 101c-176,-92 -370,-140 -584,-140 -218,0 -412,48 -584,140 -173,93 -307,221 -406,385 -98,164 -149,349 -149,554 0,206 51,394 149,558 99,167 233,298 406,390 172,96 366,143 584,143 214,0 408,-47 584,-143 173,-92 310,-223 409,-390 98,-164 146,-352 146,-558 0,-205 -48,-390 -146,-554 -99,-164 -236,-292 -409,-385zm-829 450c78,-50 161,-74 254,-74 92,0 176,24 250,74 75,51 134,116 179,203 45,86 66,185 66,289 0,108 -21,203 -66,289 -45,87 -104,155 -179,206 -77,51 -161,78 -250,78 -93,0 -176,-27 -254,-78 -80,-51 -143,-119 -187,-206 -48,-86 -72,-184 -72,-289 0,-104 24,-203 72,-289 44,-87 107,-152 187,-203zm1431 -551l799 2090 644 0 808 -2090 -635 0 -477 1446 -477 -1446 -662 0zm2415 0l0 2090 620 0 0 -2090 -620 0z"/>
   <path class="fil1" d="M9996 104c-128,-53 -266,-80 -406,-80 -211,0 -408,51 -590,155 -185,104 -331,247 -441,423 -110,179 -164,373 -164,582 0,178 42,342 128,488 84,147 200,263 349,346 149,87 316,128 501,128 140,0 283,-29 423,-86 140,-57 265,-134 379,-233l-128 -158c-93,81 -194,141 -305,185 -113,45 -226,69 -339,69 -144,0 -275,-33 -391,-102 -116,-68 -209,-158 -274,-274 -69,-116 -102,-244 -102,-384 0,-164 42,-319 129,-459 86,-141 199,-254 345,-337 143,-84 299,-125 465,-125 114,0 221,23 325,68 102,45 191,110 266,194l158 -173c-90,-96 -200,-170 -328,-227zm826 1804l375 -1866 -238 0 -418 2087 1154 0 42 -221 -915 0zm2817 221l256 0 -590 -2087 -245 0 -1278 2087 250 0 322 -534 1139 0 146 534zm-1154 -752l650 -1082 298 1082 -948 0zm3488 -253c107,-140 161,-313 161,-519 0,-179 -60,-319 -182,-417 -122,-99 -295,-146 -519,-146l-792 0 -418 2087 239 0 134 -662 554 0c33,0 78,-3 137,-6l302 668 274 0 -349 -707c197,-57 349,-155 459,-298zm-259 -36c-125,105 -298,158 -522,158l-554 0 199 -984 555 0c164,0 292,33 378,99 87,68 132,164 132,289 0,188 -63,334 -188,438zm2397 -939c-153,-83 -322,-125 -510,-125 -212,0 -412,51 -593,155 -185,104 -331,247 -442,423 -110,176 -164,370 -164,579 0,181 42,345 129,491 86,147 202,263 354,346 152,87 319,128 507,128 212,0 412,-53 596,-158 182,-104 331,-247 441,-426 111,-179 164,-372 164,-581 0,-179 -41,-343 -128,-489 -86,-146 -202,-259 -354,-343zm-987 221c146,-84 298,-126 462,-126 140,0 271,33 387,99 117,69 209,158 278,274 65,116 98,245 98,385 0,164 -42,319 -128,459 -87,143 -203,256 -346,340 -146,86 -298,128 -462,128 -143,0 -274,-33 -391,-102 -116,-68 -208,-160 -277,-277 -68,-116 -101,-244 -101,-384 0,-164 45,-319 131,-460 86,-140 203,-253 349,-336z"/>
  </g>
  <g id="logo.cdr">
   <path class="fil2" d="M8845 10784c0,-56 -2,-83 29,-135 31,-52 64,-85 117,-110 33,-16 64,-25 101,-25 84,0 162,46 206,102 30,37 51,91 51,141 0,68 -30,150 -65,184 -45,43 -92,69 -174,78 -78,9 -137,-27 -182,-63 -29,-23 -36,-34 -57,-71 -13,-24 -26,-71 -26,-101zm-1943 -2424c-1,-22 6,-45 10,-66 5,-34 15,-44 40,-73 6,-6 11,-16 17,-21 9,-10 33,-24 44,-32 20,-16 47,-32 77,-46l1 5c13,3 14,2 16,16 2,9 1,28 2,38l48 609c4,49 10,173 19,225l-15 -7c-18,-9 -45,-39 -59,-54 -24,-26 -65,-78 -79,-111 -79,-187 -106,-271 -121,-483zm563 -324c7,-1 13,-2 19,-2 45,-6 96,-9 143,-9 134,-1 147,-5 286,11 99,11 195,45 275,104 73,54 95,185 94,285 0,122 -7,269 -77,371 -56,83 -38,47 -121,106 -30,22 -120,60 -155,73 -48,17 -131,32 -181,45 -22,6 -45,5 -68,9 -21,3 -42,10 -63,12 -23,2 -46,3 -70,5l-15 2c0,-17 -7,-2 -9,-28 -2,-14 -2,-30 -3,-45l-55 -650c-2,-29 -3,-63 -5,-94 -3,-38 -20,-154 -15,-185 4,-2 7,-2 12,-5l8 -5 0 0zm3117 -213c9,9 19,19 23,25 54,73 61,221 60,319 -1,91 -13,178 -32,261 -1,4 -3,9 -4,13 0,-19 0,-38 -3,-56 -5,-24 -8,-35 -10,-63l-17 -206c-3,-45 -5,-91 -9,-135 -3,-24 -13,-117 -9,-135 2,-11 2,-17 1,-23zm-293 904c-65,13 -198,29 -234,31 -67,3 -215,6 -278,0 -16,-2 -122,-17 -131,-20 -70,-26 -120,-38 -175,-90 -10,-9 -13,-9 -21,-17 -16,-14 -45,-67 -59,-91 -60,-103 -83,-242 -91,-364 -4,-58 -7,-82 17,-128 12,-23 16,-28 30,-46l36 -39c74,-85 301,-163 420,-186l194 -33c24,-3 46,-3 70,-6 22,-3 44,-7 66,-9 20,-2 39,-2 59,-3l0 1c14,10 15,7 16,27 1,13 2,25 3,38 2,26 3,53 5,80 4,52 12,107 14,157 2,56 8,106 12,161 5,53 7,105 12,156 10,105 19,213 27,319 1,22 5,40 8,62zm683 -1177c-28,-15 -172,-10 -215,-9 -70,2 -144,-2 -213,0 0,-3 0,-6 1,-9 3,-34 9,-1 3,-65l-32 -411c-7,-90 -16,-181 -21,-272 -2,-44 -9,-89 -11,-133 -7,-134 -22,-271 -32,-407 -7,-92 -16,-155 -68,-229 -30,-42 -15,-33 -63,-81 -80,-81 -197,-126 -317,-126 -119,1 -285,20 -411,30 -48,3 -92,4 -139,8 -135,13 -273,21 -406,31 -136,10 -273,24 -410,31 -46,2 -90,8 -136,11l-410 30c-90,7 -183,16 -273,22 -124,9 -449,25 -537,52 -39,12 -72,24 -100,45 -60,43 -17,2 -81,66 -41,40 -90,114 -108,188 -4,19 -12,39 -14,58 -12,98 15,382 25,481 26,272 39,544 64,815 5,46 9,91 11,137l10 99c-2,13 -8,6 -18,18l0 3c-19,3 -39,7 -58,8 -35,4 -61,13 -96,17 -18,3 -29,6 -45,11 -15,5 -29,5 -46,9 -58,14 -120,32 -179,45 -19,4 -30,3 -49,9 -14,5 -28,8 -44,11 -59,12 -63,15 -58,45 8,52 0,91 27,137 15,26 115,76 142,83 40,10 22,23 33,79 8,42 22,89 29,137l73 264c9,28 21,51 31,79 52,135 81,231 186,319 50,41 112,67 178,81 3,94 31,388 35,458 6,90 14,183 22,272 9,92 14,183 22,275 15,179 25,361 42,542 8,90 14,177 26,266 7,60 67,160 101,195 33,34 77,75 120,96 14,7 38,17 54,22 90,30 169,25 266,19 93,-6 181,-14 274,-19 45,-3 90,-9 135,-12l683 -51c90,-7 181,-14 272,-19 47,-3 90,-9 137,-12 46,-4 93,-5 138,-9 46,-3 88,-9 135,-11 92,-4 177,-15 274,-19 46,-2 92,-10 136,-13 47,-3 91,-3 137,-8 108,-12 289,-11 376,-68 68,-45 110,-69 151,-141 23,-40 28,-46 51,-93 14,-27 21,-91 24,-125 3,-52 0,-84 -4,-134 -12,-135 -20,-275 -33,-412 -8,-90 -13,-181 -21,-270 -8,-91 -15,-184 -21,-274 -3,-46 -8,-88 -12,-135 -3,-45 -4,-91 -10,-137 -10,-90 -13,-183 -22,-274l-26 -338c1,-14 6,-13 9,-24 9,-9 17,-17 23,-24 7,-7 6,-4 14,-13 33,-38 62,-88 81,-142 33,-92 22,-93 39,-185 13,-68 21,-124 22,-193 2,-73 7,-142 4,-214 -1,-22 -6,-201 -3,-206 5,-10 53,-38 67,-48l53 -56c31,-37 15,-144 6,-183zm-793 14c-60,5 -122,10 -167,17 -34,5 -62,9 -98,12 -33,3 -60,12 -97,16 -36,3 -146,27 -185,38 -84,24 -181,45 -260,70l-128 42c-15,4 -25,9 -40,14 -69,24 -56,21 -128,40 -50,13 -92,21 -142,27 -36,4 -63,6 -99,12 -33,6 -67,7 -102,11 -113,14 -305,40 -414,25 -89,-12 -211,-30 -296,-30 -74,1 -146,-1 -220,-1 -130,0 -245,7 -365,20 -1,-7 -1,2 -8,-12l-10 -111c-7,-98 -17,-198 -25,-297 -7,-98 -25,-203 -6,-299 25,-126 64,-177 146,-259 10,-10 32,-21 47,-32 33,-24 65,-35 109,-53 19,-8 111,-23 139,-24 51,-2 99,-6 149,-11 50,-5 101,-6 152,-10 250,-20 503,-36 751,-58 99,-9 202,-16 300,-22 52,-3 100,-7 151,-12 50,-4 101,-5 151,-10 86,-7 219,-23 305,-8 75,13 164,57 218,105 31,27 89,101 104,140l21 58c25,88 26,194 34,290 4,50 10,98 13,148l14 149c-10,7 -9,3 -14,13 0,0 0,1 0,2zm-2641 1709c91,-12 174,-30 263,-45 91,-15 180,-40 264,-69 125,-44 185,-97 262,-186 35,-40 91,-122 108,-170 5,-13 10,-28 15,-40 6,-15 10,-27 15,-41 24,-66 19,-66 36,-132 9,-34 10,-61 14,-95 7,-47 18,-154 36,-188 8,-13 16,-22 25,-34 59,-82 169,-128 267,-111 62,11 111,24 154,69 10,9 21,19 29,29 30,38 83,196 121,269 22,41 29,69 58,107 8,11 12,19 21,33 60,91 77,109 160,177l65 46c62,38 182,79 253,83 107,7 211,5 314,1 35,-1 73,-2 103,-3 21,-1 122,-12 173,-20 0,2 0,4 0,5 17,17 10,6 13,37 1,15 3,32 4,49 8,120 53,590 44,660 -6,48 -30,116 -51,153 -13,25 -26,38 -40,60 -31,48 -61,68 -104,98 -116,81 -286,74 -416,86l-377 28c-60,3 -121,12 -182,15 -65,3 -127,10 -189,14 -63,5 -124,8 -186,14 -116,10 -260,16 -375,27 -63,6 -124,10 -189,14 -114,7 -255,37 -366,-8 -22,-9 -50,-20 -70,-30 -12,-6 -19,-13 -30,-22 -67,-49 -39,-34 -81,-70 -38,-32 -97,-146 -102,-197 -19,-183 -36,-375 -49,-557 -1,-23 -6,-22 -9,-42 -1,-5 -1,-10 -1,-14zm2046 -783c51,0 69,-27 91,-57 6,-7 12,-14 21,-27 46,-67 224,-87 235,57 3,43 6,117 80,115 27,0 53,-10 70,-24 21,-19 27,-30 27,-68 4,-147 -117,-308 -276,-308 -113,0 -184,33 -260,105 -22,21 -61,67 -69,109 -5,28 3,55 17,69 6,7 49,29 64,29zm-1713 53c70,0 105,40 143,70 15,12 19,22 43,29 18,4 41,3 56,-6 36,-22 56,-42 50,-90 -2,-23 -14,-33 -24,-48 -43,-56 -96,-84 -169,-113 -71,-28 -169,-15 -233,13 -33,14 -61,38 -82,58 -17,18 -44,59 -54,87 -16,44 -22,61 -25,109 -3,40 -1,93 22,119 21,25 64,37 107,24 48,-16 49,-58 45,-95 -8,-93 31,-157 121,-157zm-633 -4209c-21,4 -41,5 -61,9 -38,7 -151,28 -177,39 -32,14 -79,21 -113,32 -36,13 -70,25 -105,39 -94,37 -211,85 -299,134 -33,18 -60,36 -92,54 -83,47 -98,58 -175,114l-84 60c-49,45 -110,90 -154,135 -41,41 -138,142 -173,188 -5,6 -10,14 -15,19 -7,9 -10,10 -18,20 -24,31 -30,29 -63,78 -18,28 -41,57 -59,85l-57 87c-85,138 -133,238 -190,389 -13,33 -28,70 -40,104 -20,55 -48,171 -59,230 -34,175 -32,225 -47,387 -5,52 4,73 27,111 50,82 178,102 250,49 12,-8 33,-22 42,-31 59,-58 59,-145 65,-223 5,-48 10,-83 17,-128 31,-212 115,-468 222,-645l175 -258c52,-71 179,-198 248,-254 15,-12 25,-24 38,-35 16,-13 21,-21 37,-34 12,-10 31,-20 44,-29 29,-21 55,-40 85,-60l183 -105c33,-16 64,-29 99,-46 85,-41 287,-105 382,-124 20,-4 40,-5 61,-11 63,-16 129,-17 169,-48 15,-11 28,-17 38,-34 15,-26 38,-72 38,-107 0,-40 -17,-84 -36,-110 -8,-11 -26,-30 -34,-37 -14,-12 -27,-19 -44,-29 -31,-18 -89,-21 -125,-15zm78 746c-47,10 -112,22 -156,37 -76,28 -133,45 -210,79 -53,23 -148,70 -192,100 -24,17 -32,18 -58,39 -17,13 -39,26 -56,40 -73,60 -167,139 -226,211l-69 79c-15,18 -25,36 -39,57 -146,210 -199,357 -262,608 -6,22 -22,151 -21,176 0,28 10,54 22,75 22,37 9,29 41,55 17,14 38,27 62,35 48,14 125,10 158,-17 42,-34 65,-42 82,-111 7,-27 11,-51 15,-81 15,-116 42,-207 84,-305 23,-54 69,-139 98,-190 14,-23 28,-37 42,-58 20,-29 86,-104 112,-129 10,-9 16,-14 25,-23 17,-19 37,-30 53,-47 17,-17 32,-29 53,-44 21,-15 35,-27 56,-40 51,-31 130,-77 189,-100 24,-10 44,-17 69,-27 110,-44 208,-35 282,-106 9,-8 15,-14 22,-27l18 -30c5,-11 17,-66 15,-80 -7,-59 -25,-92 -62,-130 -26,-26 -96,-55 -147,-46zm1862 3859c-18,0 -142,11 -159,18 -17,6 -52,34 -12,63 30,21 119,-5 158,14 -7,30 -52,69 -70,88 -46,46 -165,78 -244,73 -110,-6 -113,-20 -195,-38 -23,-5 -35,-17 -65,-12 -77,14 76,139 288,139 79,0 80,1 165,-20 41,-11 88,-44 119,-74 10,-9 21,-19 32,-30 33,-34 31,-65 62,-63 10,16 17,33 26,52 35,75 90,20 69,-38 -38,-107 -49,-172 -174,-172zm738 -2881c55,-12 94,2 132,25 94,59 105,247 -58,292 -47,13 -94,0 -132,-26 -17,-11 -28,-26 -39,-44 -15,-25 -14,-23 -24,-54 -11,-30 -7,-38 -2,-69 8,-54 64,-110 123,-124z"/>
   <path class="fil2" d="M10656 10986c456,87 736,204 736,333 0,269 -1216,487 -2716,487 -1500,0 -2716,-218 -2716,-487 0,-176 523,-331 1306,-416 4,38 7,76 12,114 8,59 67,159 101,194 34,34 77,75 120,97 15,7 39,17 54,22 90,30 169,25 267,18 93,-6 181,-13 274,-19 44,-2 89,-8 134,-11l683 -52c90,-6 181,-14 273,-19 47,-2 90,-8 137,-12 46,-3 93,-5 138,-8 45,-4 87,-10 134,-12 92,-4 177,-14 275,-19 45,-2 92,-10 135,-13 47,-3 92,-3 137,-8 108,-12 289,-10 376,-67 62,-41 102,-65 140,-122z"/>
   <path class="fil3" d="M10909 7486c-28,-14 -173,-9 -216,-8 -69,1 -143,-3 -213,-1 0,-3 1,-6 1,-9 4,-34 9,-1 4,-64l-32 -411c-8,-90 -16,-181 -21,-272 -3,-45 -9,-90 -12,-134 -7,-133 -22,-270 -32,-406 -6,-93 -16,-155 -67,-229 -30,-42 -15,-34 -63,-82 -81,-81 -198,-126 -318,-125 -119,0 -285,20 -410,29 -48,4 -93,4 -140,9 -135,13 -272,20 -406,31 -136,10 -272,23 -409,30 -46,3 -91,8 -137,12l-410 30c-90,6 -183,15 -272,22 -124,9 -449,24 -538,52 -38,12 -71,24 -99,44 -60,43 -18,3 -82,67 -40,40 -90,113 -107,188 -5,18 -12,38 -15,58 -12,98 16,382 25,480 26,272 40,545 65,816 4,46 8,91 11,136l9 100c-2,13 -7,6 -18,17l1 3c-20,4 -40,7 -59,9 -35,3 -61,13 -96,17 -18,2 -28,5 -44,11 -16,5 -30,5 -46,9 -58,13 -121,31 -180,44 -18,4 -29,4 -48,10 -14,4 -29,8 -44,11 -60,11 -64,14 -59,44 9,53 1,91 28,138 14,25 115,75 142,82 40,10 21,24 33,80 8,41 21,89 29,137l72 264c9,27 21,50 32,78 51,136 80,231 186,320 49,41 111,66 177,81 4,94 31,387 36,458 5,90 13,183 22,271 8,92 14,183 21,275 15,179 26,362 43,543 8,89 14,177 25,266 8,59 67,159 101,194 34,34 77,75 120,97 15,7 39,17 54,22 90,30 169,25 267,18 93,-6 181,-13 274,-19 44,-2 89,-8 134,-11l683 -52c90,-6 181,-14 273,-19 47,-2 90,-8 137,-12 46,-3 93,-5 138,-8 45,-4 87,-10 134,-12 92,-4 177,-14 275,-19 45,-2 92,-10 135,-13 47,-2 92,-3 137,-8 108,-12 289,-10 376,-67 69,-45 110,-70 152,-141 23,-40 28,-46 51,-94 13,-27 21,-91 23,-125 4,-52 1,-84 -4,-134 -12,-135 -19,-275 -32,-412 -9,-90 -14,-180 -22,-270 -8,-91 -15,-184 -20,-274 -3,-46 -9,-88 -12,-134 -3,-45 -5,-92 -10,-138 -10,-89 -13,-183 -22,-273l-26 -338c1,-14 6,-13 9,-25 8,-8 16,-16 22,-23 7,-7 7,-5 14,-14 33,-38 62,-88 82,-142 33,-91 21,-92 38,-185 13,-68 21,-124 23,-193 1,-73 7,-141 3,-213 -1,-22 -5,-202 -2,-207 5,-10 52,-37 66,-47l54 -56c30,-37 15,-145 6,-184zm-3656 -2469c-47,9 -113,21 -156,37 -77,27 -133,45 -211,78 -53,23 -147,70 -191,101 -24,16 -32,18 -58,38 -18,14 -39,27 -56,40 -74,61 -168,140 -226,212l-69 78c-16,19 -25,36 -40,57 -145,211 -198,358 -262,608 -5,22 -21,152 -21,177 1,27 11,53 23,74 21,38 9,29 41,56 16,13 37,27 61,34 48,15 126,11 159,-17 41,-34 64,-42 81,-110 7,-28 12,-52 16,-81 15,-117 42,-207 84,-305 23,-54 69,-139 98,-191 13,-22 28,-36 42,-58 20,-29 85,-104 112,-128 10,-9 16,-14 24,-24 18,-19 37,-30 54,-46 16,-17 31,-30 52,-44 22,-15 35,-27 56,-40 51,-32 130,-77 189,-101 24,-9 44,-16 69,-26 110,-44 209,-35 283,-107 8,-8 14,-14 22,-26l18 -30c5,-12 17,-67 15,-81 -7,-58 -25,-92 -63,-129 -25,-26 -96,-56 -146,-46zm-79 -746c-20,4 -40,5 -60,9 -39,7 -151,27 -178,39 -31,13 -79,20 -112,32 -37,12 -71,25 -106,39 -94,36 -210,84 -299,134 -32,18 -60,35 -91,53 -83,47 -99,59 -175,114l-84 60c-50,46 -110,91 -155,135 -41,41 -138,143 -173,188 -5,7 -9,14 -14,20 -8,8 -11,10 -18,19 -25,32 -30,30 -63,79 -19,28 -41,56 -60,85l-57 87c-84,138 -132,238 -190,388 -13,33 -28,71 -40,105 -19,55 -47,170 -59,230 -34,174 -32,225 -46,386 -5,53 4,73 27,111 50,82 178,102 250,49 11,-8 33,-22 42,-30 58,-58 58,-146 65,-224 4,-47 10,-83 16,-128 31,-211 116,-467 223,-645l175 -257c51,-71 179,-198 248,-255 15,-12 24,-24 37,-34 17,-13 22,-22 38,-35 11,-9 30,-20 43,-29 29,-21 55,-40 85,-60l184 -105c33,-15 64,-29 99,-45 85,-41 287,-106 381,-124 21,-5 41,-6 61,-11 63,-16 129,-18 169,-48 15,-11 28,-18 38,-34 16,-27 38,-73 38,-108 0,-39 -17,-84 -36,-109 -8,-11 -25,-30 -34,-38 -13,-12 -26,-18 -44,-29 -31,-18 -89,-21 -125,-14z"/>
   <g>
    <path class="fil4" d="M8782 10721c0,-56 -3,-83 29,-136 31,-52 63,-84 117,-110 33,-15 63,-25 101,-25 83,0 161,47 206,103 29,37 51,90 51,140 0,68 -30,151 -66,185 -44,42 -91,68 -174,78 -77,9 -136,-27 -182,-64 -28,-22 -36,-33 -56,-71 -13,-24 -26,-70 -26,-100zm-1380 -2748c-5,-21 -8,-49 -11,-72 -1,-8 -5,-24 -7,-34 -2,-11 -7,-18 -8,-33 -4,-39 1,-13 -9,-32l-10 -111c-8,-98 -18,-199 -25,-297 -7,-98 -25,-204 -6,-299 25,-126 63,-178 146,-260 10,-10 32,-20 47,-31 33,-24 65,-36 108,-54 20,-8 111,-23 140,-24 50,-1 99,-6 149,-11 50,-5 101,-6 152,-10 249,-19 502,-36 751,-58 98,-8 202,-15 300,-21 52,-3 99,-7 151,-12 50,-5 101,-6 151,-10 86,-7 218,-23 304,-8 76,13 164,57 219,104 31,27 89,102 104,141l21 58c25,88 26,193 34,289 4,50 10,98 13,149l13 149c-9,7 -8,3 -13,12 -6,24 11,114 12,125 1,17 -4,20 0,40 15,10 15,7 16,28 1,13 3,24 4,38 1,25 2,53 4,80 5,51 13,107 14,157 2,56 8,106 13,160 4,53 7,106 12,157 9,104 19,212 26,318 2,26 7,48 10,76 4,32 7,191 3,218 18,17 10,5 13,37 2,15 3,31 4,48 8,120 53,590 44,661 -6,48 -29,115 -50,153 -14,24 -26,38 -40,59 -31,48 -62,68 -105,98 -116,81 -285,75 -415,87l-377 27c-60,4 -122,13 -183,15 -64,3 -126,10 -188,15 -63,5 -124,8 -186,13 -117,11 -261,16 -375,27 -64,6 -125,11 -189,15 -114,6 -256,37 -366,-9 -22,-9 -51,-19 -70,-30 -12,-6 -19,-13 -30,-21 -67,-49 -40,-35 -82,-70 -37,-32 -96,-147 -101,-198 -19,-182 -37,-375 -49,-556 -2,-24 -7,-23 -10,-42 -2,-16 1,-26 0,-42 -1,-17 1,-32 -2,-50 -2,-13 -9,-22 -10,-38 -3,-32 3,-69 5,-100 3,-32 -6,-8 -9,-37 -1,-15 -2,-30 -3,-45l-54 -650c-3,-30 -3,-63 -6,-94 -3,-38 -19,-154 -14,-185 4,-2 6,-3 11,-5l9 -5zm2450 -1978c55,-13 94,1 132,25 94,59 105,247 -58,292 -46,12 -93,0 -132,-26 -16,-11 -27,-26 -38,-44 -16,-26 -14,-23 -25,-55 -10,-29 -6,-38 -2,-69 8,-54 64,-109 123,-123zm-2845 1871l20 198c14,3 15,1 17,16 1,8 1,27 1,37l49 609c4,51 10,183 19,231 3,15 0,23 0,37 0,24 7,46 6,65 0,19 -2,48 -1,65 1,22 14,31 13,59 -1,59 31,402 36,479 5,90 13,183 22,271 8,92 14,183 21,275 15,179 26,362 43,543 8,89 14,177 25,266 8,59 67,159 101,194 34,34 77,75 120,97 15,7 39,17 54,22 90,30 169,25 267,18 93,-6 181,-13 274,-19 44,-2 89,-8 134,-11l683 -52c90,-6 181,-14 273,-19 47,-2 90,-8 137,-12 46,-3 93,-5 138,-8 45,-4 87,-10 134,-12 92,-4 177,-14 275,-19 45,-2 92,-10 135,-13 47,-2 92,-3 137,-8 108,-12 289,-10 376,-67 69,-45 110,-70 152,-141 23,-40 28,-46 51,-94 13,-27 21,-91 23,-125 4,-52 1,-84 -4,-134 -12,-135 -19,-275 -32,-412 -9,-90 -14,-180 -22,-270 -8,-91 -15,-184 -20,-274 -3,-46 -9,-88 -12,-134 -3,-45 -5,-92 -10,-138 -10,-89 -13,-183 -22,-273l-26 -338c1,-14 6,-13 9,-26l2 -109c0,-26 -4,-47 -5,-72 -1,-27 -10,-36 -14,-58 -4,-25 -2,-38 -11,-61 -16,-45 -5,-87 -13,-128 -4,-24 -8,-34 -9,-63l-18 -206c-3,-44 -4,-91 -9,-135 -3,-24 -12,-116 -8,-134 6,-29 -7,-27 -7,-58 0,-27 -2,-44 -6,-69 -3,-23 -6,-41 -8,-65 -3,-31 -24,-52 -16,-123 4,-34 9,-1 4,-64l-32 -411c-8,-90 -16,-181 -21,-272 -3,-45 -9,-90 -12,-134 -7,-133 -22,-270 -32,-406 -6,-93 -16,-155 -67,-229 -30,-42 -15,-34 -63,-82 -81,-81 -198,-126 -318,-125 -119,0 -285,20 -410,29 -48,4 -93,4 -140,9 -135,13 -272,20 -406,31 -136,10 -272,23 -409,30 -46,3 -91,8 -137,12l-410 30c-90,6 -183,15 -272,22 -124,9 -449,24 -538,52 -38,12 -71,24 -99,44 -60,43 -18,3 -82,67 -40,40 -90,113 -107,188 -5,18 -12,38 -15,58 -12,98 16,382 25,480 26,272 40,545 65,816 4,46 8,91 11,136l9 100c-2,13 -7,6 -18,17z"/>
    <path class="fil4" d="M7174 4271c-20,4 -40,5 -60,9 -39,7 -151,27 -178,39 -31,13 -79,20 -112,32 -37,12 -71,25 -106,39 -94,36 -210,84 -299,134 -32,18 -60,35 -91,53 -83,47 -99,59 -175,114l-84 60c-50,46 -110,91 -155,135 -41,41 -138,143 -173,188 -5,7 -9,14 -14,20 -8,8 -11,10 -18,19 -25,32 -30,30 -63,79 -19,28 -41,56 -60,85l-57 87c-84,138 -132,238 -190,388 -13,33 -28,71 -40,105 -19,55 -47,170 -59,230 -34,174 -32,225 -46,386 -5,53 4,73 27,111 50,82 178,102 250,49 11,-8 33,-22 42,-30 58,-58 58,-146 65,-224 4,-47 10,-83 16,-128 31,-211 116,-467 223,-645l175 -257c51,-71 179,-198 248,-255 15,-12 24,-24 37,-34 17,-13 22,-22 38,-35 11,-9 30,-20 43,-29 29,-21 55,-40 85,-60l184 -105c33,-15 64,-29 99,-45 85,-41 287,-106 381,-124 21,-5 41,-6 61,-11 63,-16 129,-18 169,-48 15,-11 28,-18 38,-34 16,-27 38,-73 38,-108 0,-39 -17,-84 -36,-109 -8,-11 -25,-30 -34,-38 -13,-12 -26,-18 -44,-29 -31,-18 -89,-21 -125,-14z"/>
    <path class="fil4" d="M7253 5017c-47,9 -113,21 -156,37 -77,27 -133,45 -211,78 -53,23 -147,70 -191,101 -24,16 -32,18 -58,38 -18,14 -39,27 -56,40 -74,61 -168,140 -226,212l-69 78c-16,19 -25,36 -40,57 -145,211 -198,358 -262,608 -5,22 -21,152 -21,177 1,27 11,53 23,74 21,38 9,29 41,56 16,13 37,27 61,34 48,15 126,11 159,-17 41,-34 64,-42 81,-110 7,-28 12,-52 16,-81 15,-117 42,-207 84,-305 23,-54 69,-139 98,-191 13,-22 28,-36 42,-58 20,-29 85,-104 112,-128 10,-9 16,-14 24,-24 18,-19 37,-30 54,-46 16,-17 31,-30 52,-44 22,-15 35,-27 56,-40 51,-32 130,-77 189,-101 24,-9 44,-16 69,-26 110,-44 209,-35 283,-107 8,-8 14,-14 22,-26l18 -30c5,-12 17,-67 15,-81 -7,-58 -25,-92 -63,-129 -25,-26 -96,-56 -146,-46z"/>
   </g>
   <g>
    <path class="fil5" d="M6839 8296c-2,-22 5,-45 9,-66 6,-34 16,-43 41,-72 5,-7 10,-16 16,-22 9,-9 33,-23 44,-32 50,-38 137,-76 211,-91 42,-9 81,-20 123,-28 41,-8 94,-9 137,-15 46,-6 96,-8 144,-9 133,-1 146,-5 285,11 100,11 196,46 275,104 74,55 95,186 95,286 -1,121 -8,269 -78,371 -56,82 -37,47 -120,106 -31,22 -121,60 -155,72 -49,18 -132,33 -182,46 -21,5 -45,5 -67,8 -22,4 -42,10 -64,12 -23,3 -45,4 -70,6 -98,8 -102,12 -205,8 -26,-1 -42,-7 -65,-10 -59,-8 -67,-13 -115,-36 -18,-9 -45,-39 -60,-55 -23,-26 -65,-78 -78,-110 -80,-187 -107,-271 -121,-484zm3301 -634c74,-5 196,12 265,32 13,3 17,6 27,11 10,4 17,6 28,10 20,8 32,20 44,31 11,10 31,29 37,38 54,74 61,221 60,320 0,90 -13,178 -32,260 -4,19 -15,40 -20,56 -17,53 -24,57 -50,102 -10,18 -20,27 -34,41 -30,29 -49,37 -95,56 -64,27 -58,20 -114,38 -39,12 -221,35 -264,37 -67,4 -215,7 -279,1 -16,-2 -121,-18 -130,-21 -71,-26 -121,-38 -176,-89 -10,-10 -13,-10 -21,-17 -16,-15 -45,-68 -59,-92 -59,-102 -83,-241 -91,-363 -4,-59 -7,-83 17,-129 12,-22 16,-28 31,-45l36 -40c73,-85 300,-163 420,-185l193 -34c24,-2 46,-2 71,-6 22,-2 43,-6 66,-9 24,-2 47,-1 70,-3zm769 -176c-28,-14 -173,-9 -216,-8 -73,1 -151,-3 -223,0 -72,2 -141,5 -212,12 -84,8 -225,15 -309,27 -35,6 -63,9 -98,12 -33,3 -61,13 -98,16 -35,4 -145,27 -185,39 -83,23 -180,44 -259,70l-128 41c-16,4 -25,10 -40,15 -69,23 -57,21 -129,40 -49,13 -92,21 -142,26 -35,4 -63,7 -98,13 -34,5 -68,6 -103,10 -113,14 -305,40 -414,25 -89,-12 -210,-29 -296,-29 -73,0 -146,-2 -220,-2 -178,0 -328,14 -503,38 -34,5 -63,13 -95,16 -62,5 -129,25 -192,31 -35,3 -61,13 -96,17 -18,2 -28,5 -44,11 -16,5 -30,5 -46,9 -58,13 -121,31 -180,44 -18,4 -29,4 -48,10 -14,4 -29,8 -44,11 -60,11 -64,14 -59,44 9,53 1,91 28,138 14,25 115,75 142,82 40,10 21,24 33,80 8,41 21,89 29,137l72 264c9,27 21,50 32,78 51,136 80,231 186,320 127,105 333,107 494,89 101,-11 192,-31 290,-47 90,-15 180,-41 264,-70 124,-44 184,-97 261,-185 36,-41 91,-123 109,-170 4,-13 9,-28 14,-41 6,-15 10,-26 15,-40 24,-67 19,-66 36,-132 9,-35 10,-61 15,-96 6,-47 18,-153 36,-187 7,-14 16,-22 24,-34 59,-82 169,-128 268,-111 61,11 111,24 154,68 9,10 21,19 29,30 30,37 82,195 120,268 22,42 29,70 58,107 9,12 12,20 22,34 59,90 77,108 160,177l65 45c61,39 182,79 253,84 106,7 211,5 314,1 35,-1 73,-2 102,-4 27,-1 181,-18 201,-24 103,-31 123,-8 274,-87 7,-4 11,-4 19,-8 25,-12 56,-43 74,-63 7,-7 7,-5 14,-14 33,-38 62,-88 82,-142 33,-91 21,-92 38,-185 13,-68 21,-124 23,-193 1,-73 7,-141 3,-213 -1,-22 -5,-202 -2,-207 5,-10 52,-37 66,-47l54 -56c30,-37 15,-145 6,-184z"/>
    <path class="fil5" d="M9521 8427c51,0 68,-28 91,-57 6,-8 11,-15 20,-28 46,-67 225,-87 235,57 4,43 7,117 80,116 28,-1 53,-10 70,-25 22,-19 27,-29 28,-67 3,-148 -117,-309 -277,-309 -112,0 -184,33 -259,105 -22,21 -62,67 -69,110 -5,27 2,54 17,69 6,6 48,29 64,29z"/>
    <path class="fil5" d="M7808 8479c70,0 105,40 142,70 16,13 19,23 44,29 18,4 41,3 55,-6 36,-21 56,-42 51,-90 -3,-23 -14,-33 -25,-47 -42,-57 -95,-85 -168,-114 -71,-28 -170,-15 -233,13 -34,15 -62,38 -82,59 -18,18 -45,58 -55,87 -15,43 -22,60 -25,108 -3,40 -1,93 22,120 22,25 65,37 107,23 48,-15 49,-58 46,-94 -9,-94 31,-158 121,-158z"/>
    <path class="fil5" d="M9115 8876c-18,0 -143,11 -160,17 -16,6 -51,34 -12,63 30,22 120,-4 158,15 -7,30 -51,68 -70,87 -45,46 -164,78 -243,74 -110,-7 -114,-20 -196,-38 -22,-5 -35,-18 -65,-13 -76,14 77,139 289,139 78,0 79,1 164,-20 42,-10 89,-44 119,-73 10,-10 22,-19 32,-30 34,-34 31,-66 63,-64 9,16 16,33 26,53 34,74 89,20 68,-39 -38,-106 -49,-171 -173,-171z"/>
   </g>
  </g>
 </g>
</svg>
