<?xml version="1.0" encoding="UTF-8"?>
<!DOCTYPE svg PUBLIC "-//W3C//DTD SVG 1.1//EN" "http://www.w3.org/Graphics/SVG/1.1/DTD/svg11.dtd">
<!-- Creator: CorelDRAW X7 -->
<svg xmlns="http://www.w3.org/2000/svg" xml:space="preserve" width="156.162mm" height="189.899mm" version="1.1" style="shape-rendering:geometricPrecision; text-rendering:geometricPrecision; image-rendering:optimizeQuality; fill-rule:evenodd; clip-rule:evenodd"
viewBox="0 0 14296 17385"
 xmlns:xlink="http://www.w3.org/1999/xlink">
 <defs>
  <style type="text/css">
   <![CDATA[
    .fil1 {fill:#FEFEFE}
    .fil0 {fill:#D2D3D5}
    .fil3 {fill:black}
    .fil2 {fill:#29A9E0}
   ]]>
  </style>
 </defs>
 <g id="Capa_x0020_1">
  <metadata id="CorelCorpID_0Corel-Layer"/>
  <path class="fil0" d="M8424 15028c0,-130 -6,-192 66,-313 72,-119 147,-195 271,-253 75,-36 146,-58 233,-58 192,0 372,107 474,236 69,86 118,209 118,324 0,157 -69,347 -151,426 -102,98 -211,158 -401,180 -179,21 -315,-62 -420,-146 -66,-53 -83,-79 -130,-164 -31,-56 -60,-163 -60,-232zm-4481 -5592c-4,-50 13,-103 21,-152 13,-79 36,-100 94,-167 12,-15 25,-36 38,-50 21,-22 76,-53 101,-73 48,-36 110,-73 179,-106l2 13c31,6 33,2 38,36 3,20 2,64 4,87l111 1404c10,114 22,400 42,520l-33 -16c-42,-21 -104,-90 -136,-126 -55,-59 -151,-180 -182,-254 -184,-432 -245,-625 -279,-1116zm1298 -747c15,-1 29,-3 43,-5 105,-13 221,-19 331,-20 308,-3 337,-12 659,25 228,26 450,106 633,240 170,126 219,427 218,658 -1,280 -17,620 -178,856 -129,190 -87,109 -279,245 -70,50 -277,138 -356,167 -113,40 -304,75 -419,104 -50,13 -104,12 -156,20 -50,8 -97,23 -146,28 -53,6 -105,8 -161,13l-34 3c0,-38 -17,-5 -22,-64 -3,-33 -4,-68 -7,-103l-125 -1499c-7,-68 -8,-145 -14,-217 -7,-87 -45,-355 -33,-426 9,-5 16,-6 27,-12l20 -11 -1 -2zm7187 -490c21,21 44,44 54,57 124,170 140,510 138,736 -2,210 -30,411 -75,602 -2,10 -5,20 -8,30 -1,-44 0,-88 -8,-130 -10,-55 -18,-79 -22,-145l-39 -476c-7,-102 -11,-209 -22,-310 -6,-56 -28,-269 -19,-310 5,-26 4,-41 1,-54zm-674 2085c-151,29 -456,66 -540,70 -155,8 -496,15 -642,1 -37,-4 -280,-40 -301,-47 -163,-59 -278,-87 -404,-206 -24,-22 -31,-23 -49,-39 -37,-34 -104,-156 -137,-212 -136,-236 -190,-557 -209,-837 -9,-135 -16,-191 39,-297 27,-52 37,-65 70,-105l83 -91c170,-197 694,-377 968,-427l447 -78c56,-6 106,-6 162,-13 52,-7 101,-16 153,-22 46,-5 90,-4 134,-5l0 1c35,23 35,16 38,63 2,30 5,56 7,88 5,59 6,122 11,185 11,119 29,246 33,362 4,128 18,244 29,370 10,121 16,242 26,360 22,241 45,491 62,735 4,50 13,93 20,144zm1574 -2716c-63,-33 -397,-21 -496,-19 -160,3 -331,-5 -491,-1 0,-7 1,-14 2,-21 8,-78 20,-2 8,-148l-74 -949c-18,-207 -37,-417 -48,-626 -6,-103 -22,-207 -27,-309 -15,-307 -50,-623 -73,-937 -16,-213 -37,-357 -157,-528 -68,-97 -34,-78 -144,-188 -187,-186 -456,-290 -733,-289 -274,0 -657,46 -946,67 -111,9 -214,10 -322,20 -311,31 -629,48 -936,71 -314,24 -628,54 -944,71 -107,6 -210,19 -316,27l-945 69c-207,15 -422,35 -628,50 -286,21 -1035,57 -1239,120 -90,28 -165,56 -231,103 -138,99 -40,6 -188,153 -92,92 -207,263 -248,434 -10,43 -27,89 -32,133 -28,227 35,881 57,1108 60,629 91,1256 149,1881 10,106 20,210 25,315l22 230c-5,30 -18,13 -41,40l1 7c-46,8 -91,15 -135,20 -81,8 -141,29 -222,39 -41,5 -66,13 -102,25 -36,11 -68,12 -106,21 -134,31 -278,72 -414,102 -43,10 -69,9 -112,22 -33,11 -66,18 -102,25 -137,28 -146,34 -134,104 20,120 1,209 63,317 33,59 265,173 327,189 92,24 51,55 76,184 19,95 50,205 68,316l167 608c20,64 48,117 72,182 118,312 186,533 429,736 115,96 257,154 410,188 8,216 71,893 81,1056 14,207 31,421 51,626 20,211 32,422 50,633 34,414 59,834 98,1251 19,207 33,409 58,614 18,137 155,368 234,449 77,79 176,173 277,223 32,16 89,39 123,50 208,70 390,58 615,43 215,-15 417,-32 632,-44 103,-6 206,-20 310,-27l1575 -118c208,-15 418,-33 629,-44 108,-6 208,-20 316,-28 105,-8 214,-11 318,-19 105,-9 201,-22 310,-27 212,-10 408,-33 634,-44 104,-5 211,-23 312,-29 109,-7 211,-8 315,-19 250,-29 666,-24 867,-156 158,-104 255,-161 350,-325 53,-93 65,-106 118,-215 30,-63 48,-210 53,-289 8,-120 2,-194 -8,-309 -28,-311 -45,-634 -75,-951 -20,-207 -32,-415 -50,-621 -18,-211 -34,-425 -47,-633 -7,-106 -20,-202 -27,-309 -7,-105 -12,-212 -24,-318 -23,-206 -30,-422 -51,-631l-59 -780c2,-31 14,-29 20,-56 20,-19 38,-38 53,-53 16,-17 14,-11 32,-32 75,-87 142,-203 187,-328 76,-210 49,-212 89,-426 30,-157 48,-286 51,-445 4,-168 17,-326 9,-492 -3,-52 -13,-465 -6,-477 12,-22 121,-86 153,-109l124 -129c70,-86 35,-333 13,-424zm-1828 34c-139,10 -281,23 -385,38 -80,13 -144,20 -226,28 -76,7 -140,28 -225,37 -82,8 -335,62 -426,88 -193,55 -417,103 -600,162l-294 95c-35,10 -58,23 -92,34 -160,55 -131,49 -297,92 -113,30 -212,49 -328,62 -81,9 -144,14 -226,28 -78,13 -156,15 -236,25 -261,31 -704,92 -955,57 -206,-28 -486,-68 -683,-67 -170,0 -337,-4 -508,-4 -298,0 -563,16 -841,46 -1,-15 -1,4 -17,-27l-23 -255c-18,-227 -41,-458 -57,-686 -17,-226 -59,-469 -15,-689 57,-291 147,-410 337,-598 23,-24 73,-48 109,-74 75,-54 149,-81 250,-123 44,-18 255,-53 321,-55 117,-3 228,-14 344,-25 115,-12 232,-14 351,-23 575,-46 1158,-84 1731,-134 227,-19 466,-36 692,-50 120,-7 230,-16 348,-27 115,-10 233,-13 349,-23 197,-17 503,-54 701,-19 174,30 379,131 505,241 71,62 205,234 239,324l48 134c59,202 60,446 79,668 9,114 23,226 30,342l31 344c-22,16 -20,7 -30,28 -1,2 -1,4 -1,6zm-6091 3940c209,-27 403,-69 607,-103 209,-34 415,-93 609,-160 287,-101 425,-224 603,-427 82,-94 209,-283 250,-393 11,-30 22,-64 34,-93 14,-35 22,-61 34,-93 56,-153 44,-152 84,-304 21,-80 22,-141 33,-221 15,-109 41,-354 83,-432 17,-32 37,-52 56,-79 136,-189 390,-295 617,-256 142,25 256,55 356,159 21,21 47,43 67,67 69,86 190,451 277,619 50,97 67,161 134,248 20,26 27,44 49,77 137,208 178,250 370,407l149 105c142,89 420,183 584,193 245,16 487,11 724,3 81,-3 168,-5 236,-8 49,-3 283,-28 400,-46 -1,5 -1,8 -1,11 40,40 23,13 30,86 4,35 7,73 9,112 19,277 122,1360 101,1523 -14,111 -68,267 -115,353 -32,57 -61,87 -93,137 -72,110 -142,157 -241,226 -267,187 -658,172 -958,200l-869 63c-139,9 -280,28 -421,35 -150,7 -292,22 -435,33 -146,11 -286,19 -429,31 -269,24 -601,37 -864,62 -147,14 -288,24 -436,33 -264,16 -590,86 -845,-19 -51,-21 -116,-44 -161,-69 -28,-14 -43,-30 -70,-49 -153,-114 -90,-80 -187,-162 -87,-74 -222,-338 -234,-455 -44,-421 -84,-865 -113,-1283 -4,-55 -15,-52 -22,-98 -2,-12 -3,-23 -2,-33zm4719 -1804c118,0 157,-64 209,-132 14,-17 28,-34 48,-63 106,-155 517,-201 542,132 8,99 15,269 185,266 63,-1 122,-24 161,-58 50,-43 62,-67 64,-154 7,-341 -270,-712 -638,-712 -259,0 -425,76 -598,242 -51,48 -142,154 -160,252 -11,64 6,126 39,160 15,15 112,67 148,67zm-3950 120c161,0 241,93 328,162 36,29 44,52 101,66 41,11 94,8 128,-13 82,-50 129,-97 116,-208 -6,-53 -32,-76 -57,-109 -97,-130 -220,-195 -389,-262 -163,-64 -390,-34 -536,30 -77,33 -142,88 -190,136 -40,41 -102,134 -125,200 -35,100 -51,140 -58,250 -6,92 -2,215 50,275 51,58 150,86 247,55 112,-36 114,-134 106,-218 -20,-216 71,-364 279,-364zm-1461 -9704c-48,9 -93,11 -140,20 -88,16 -348,64 -409,90 -73,31 -183,47 -260,74 -84,29 -162,58 -243,90 -217,85 -486,194 -690,309 -74,42 -138,82 -210,123 -192,108 -228,135 -404,263l-193 139c-115,104 -254,208 -356,310 -95,95 -320,330 -400,434 -11,15 -22,32 -34,45 -16,19 -24,24 -41,46 -57,72 -69,68 -145,180 -43,65 -95,131 -137,197l-132 200c-195,318 -305,549 -438,895 -30,77 -64,163 -92,241 -45,128 -109,394 -136,531 -79,402 -74,519 -108,892 -11,121 10,168 63,255 115,189 411,235 577,113 25,-18 75,-50 96,-70 135,-134 135,-335 151,-515 9,-110 22,-192 37,-295 72,-489 267,-1079 513,-1487l404 -595c119,-163 413,-456 572,-586 34,-28 56,-56 86,-80 38,-30 50,-49 87,-80 26,-22 70,-45 100,-67 67,-48 127,-92 196,-137l423 -243c77,-36 148,-67 228,-105 197,-94 663,-243 880,-287 47,-9 94,-12 141,-24 145,-37 298,-41 389,-111 35,-26 65,-40 88,-78 36,-61 87,-168 87,-248 1,-92 -39,-194 -82,-252 -19,-26 -59,-70 -79,-88 -31,-26 -61,-42 -101,-66 -71,-41 -205,-48 -288,-33zm181 1720c-109,21 -259,49 -360,85 -177,63 -307,103 -485,181 -123,53 -341,161 -442,232 -55,38 -74,41 -134,88 -41,32 -90,61 -129,93 -169,139 -387,322 -521,487l-159 182c-35,42 -58,82 -91,131 -336,486 -458,825 -604,1402 -13,51 -50,350 -49,407 1,64 24,124 52,172 50,86 21,67 95,128 37,31 86,63 142,80 110,33 288,24 365,-39 95,-79 149,-98 188,-256 16,-63 26,-118 35,-186 36,-269 97,-477 194,-704 53,-124 159,-320 227,-438 30,-53 63,-86 96,-134 46,-68 197,-241 259,-297 22,-20 36,-32 56,-54 40,-44 85,-69 123,-107 39,-39 72,-69 121,-102 50,-34 81,-63 129,-92 118,-72 301,-177 436,-231 56,-22 102,-40 160,-63 253,-100 481,-80 651,-244 20,-19 34,-32 50,-61l42 -70c12,-27 39,-153 35,-185 -17,-136 -58,-213 -144,-300 -59,-59 -222,-127 -338,-105zm4294 8899c-41,0 -328,25 -368,40 -38,14 -119,79 -27,145 69,50 275,-10 363,34 -15,69 -118,158 -161,202 -105,106 -380,179 -561,169 -254,-14 -263,-46 -451,-87 -52,-12 -81,-41 -150,-29 -176,31 177,320 665,320 181,0 183,3 379,-46 96,-25 204,-101 275,-169 24,-23 49,-45 74,-69 77,-79 71,-152 144,-147 22,37 38,76 59,121 81,172 207,46 159,-88 -88,-247 -113,-396 -400,-396zm1700 -6643c127,-30 217,2 305,57 216,135 243,569 -134,673 -108,29 -215,0 -304,-60 -38,-25 -64,-59 -89,-101 -36,-59 -33,-54 -57,-126 -24,-68 -14,-87 -4,-159 18,-125 147,-252 283,-284z"/>
  <path class="fil0" d="M12599 15492c1052,201 1697,472 1697,769 0,621 -2804,1124 -6263,1124 -3459,0 -6263,-503 -6263,-1124 0,-407 1206,-763 3012,-960 8,87 17,175 28,262 17,138 155,369 234,449 77,79 176,173 276,223 33,16 89,39 124,51 208,69 390,57 614,42 216,-14 418,-31 632,-43 104,-6 207,-20 310,-27l1575 -119c209,-15 419,-32 629,-44 109,-6 208,-19 316,-27 106,-8 214,-11 319,-20 105,-9 201,-22 309,-27 212,-9 408,-33 634,-43 105,-5 211,-24 312,-30 109,-7 211,-7 315,-19 250,-28 667,-24 868,-155 143,-94 235,-150 322,-282z"/>
  <path class="fil1" d="M13182 7421c-64,-33 -397,-20 -496,-18 -161,3 -332,-6 -492,-1 1,-7 1,-14 2,-21 9,-79 21,-3 9,-149l-75 -948c-17,-207 -36,-417 -48,-627 -5,-103 -21,-206 -26,-309 -16,-307 -51,-623 -74,-937 -15,-212 -37,-357 -156,-527 -68,-98 -35,-78 -145,-188 -186,-187 -455,-291 -732,-290 -275,1 -657,47 -947,68 -110,8 -213,9 -321,20 -311,30 -629,47 -937,71 -313,24 -628,54 -944,71 -107,5 -209,19 -315,27l-946 69c-207,14 -421,35 -628,50 -285,20 -1035,56 -1239,120 -89,28 -165,55 -230,102 -138,99 -41,6 -188,153 -93,93 -208,263 -248,435 -10,42 -27,89 -33,133 -27,226 35,881 57,1108 60,628 92,1256 150,1881 10,106 19,209 24,315l22 229c-5,30 -17,14 -40,40l0 7c-45,9 -90,16 -135,20 -81,8 -140,29 -221,40 -41,5 -66,12 -103,24 -35,12 -68,12 -106,21 -133,31 -277,73 -413,103 -44,9 -69,8 -112,22 -33,10 -67,18 -102,25 -137,27 -146,34 -135,103 20,121 1,209 63,317 34,59 266,174 328,190 92,24 50,55 76,183 19,96 50,205 67,316l167 609c21,63 49,117 73,181 118,313 185,534 429,737 114,95 256,154 410,187 7,216 70,893 81,1056 13,207 31,422 51,626 20,212 32,423 49,634 35,414 59,834 98,1251 19,206 33,409 59,613 17,138 155,369 234,449 77,79 176,173 276,223 33,16 89,39 124,51 208,69 390,57 614,42 216,-14 418,-31 632,-43 104,-6 207,-20 310,-27l1575 -119c209,-15 419,-32 629,-44 109,-6 208,-19 316,-27 106,-8 214,-11 319,-20 105,-9 201,-22 309,-27 212,-9 408,-33 634,-43 105,-5 211,-24 312,-30 109,-7 211,-7 315,-19 250,-28 667,-24 868,-155 158,-104 254,-161 349,-326 53,-92 65,-106 118,-215 31,-63 49,-210 54,-288 8,-120 2,-195 -9,-310 -27,-311 -44,-633 -75,-950 -20,-208 -31,-415 -49,-622 -19,-210 -35,-425 -48,-633 -7,-105 -20,-202 -27,-309 -7,-104 -11,-211 -23,-317 -24,-207 -30,-423 -51,-632l-60 -779c3,-32 14,-29 21,-57 19,-18 37,-37 52,-53 16,-17 14,-11 32,-31 75,-88 142,-203 188,-328 75,-210 49,-213 89,-427 29,-156 48,-286 51,-445 3,-167 17,-326 8,-492 -2,-51 -12,-464 -6,-476 12,-23 121,-87 154,-109l124 -129c70,-86 35,-334 13,-425zm-8430 -5693c-109,21 -260,48 -361,84 -176,63 -306,104 -484,181 -123,54 -341,162 -443,233 -54,38 -73,40 -134,88 -40,31 -89,61 -129,93 -169,139 -386,321 -520,487l-160 181c-35,43 -57,83 -91,131 -336,486 -458,825 -604,1403 -12,50 -49,349 -48,406 1,64 23,124 51,173 51,86 22,67 95,127 38,31 87,63 142,80 111,34 289,24 365,-39 96,-78 150,-97 189,-255 15,-64 26,-119 35,-186 35,-269 97,-478 193,-704 54,-125 160,-320 227,-439 30,-53 64,-85 97,-134 46,-67 197,-240 258,-296 23,-21 37,-33 57,-55 40,-43 84,-69 123,-107 38,-38 72,-69 120,-101 50,-34 81,-63 130,-93 117,-72 300,-177 435,-231 56,-22 102,-39 160,-62 254,-101 481,-80 652,-245 20,-19 33,-32 50,-61l41 -70c12,-26 40,-153 36,-185 -18,-135 -59,-212 -145,-299 -59,-60 -221,-127 -337,-105zm-182 -1721c-47,9 -93,11 -139,20 -89,16 -349,64 -410,90 -73,32 -183,48 -259,75 -84,29 -163,58 -243,89 -218,85 -486,195 -690,310 -74,41 -139,82 -211,122 -192,109 -227,135 -403,263l-194 139c-115,105 -253,208 -356,311 -95,95 -319,329 -399,433 -12,16 -23,33 -34,46 -17,19 -24,23 -42,45 -56,72 -69,68 -144,181 -44,65 -95,130 -137,196l-133 201c-194,318 -304,548 -438,895 -29,77 -64,163 -91,241 -45,127 -110,393 -137,530 -78,402 -74,520 -107,892 -11,121 10,168 63,256 115,189 410,235 576,113 26,-19 76,-50 96,-71 135,-133 135,-335 151,-515 10,-110 23,-191 38,-295 71,-488 266,-1078 512,-1487l405 -594c118,-164 413,-457 571,-587 34,-28 57,-56 87,-80 37,-30 50,-49 86,-80 27,-22 70,-45 100,-66 67,-49 128,-92 196,-138l423 -243c77,-36 149,-67 229,-105 196,-93 662,-243 879,-286 48,-10 94,-12 142,-24 144,-38 297,-41 389,-111 34,-26 65,-40 88,-79 36,-61 87,-167 87,-247 0,-92 -39,-195 -82,-253 -19,-26 -59,-70 -79,-87 -31,-27 -61,-43 -101,-66 -71,-42 -206,-49 -289,-34z"/>
  <g id="_1538786686080">
   <g>
    <path class="fil2" d="M8277 14881c0,-129 -6,-191 67,-312 72,-120 147,-195 270,-254 76,-35 146,-58 233,-58 193,0 372,107 475,237 68,85 118,209 118,324 0,157 -70,346 -152,425 -102,98 -211,158 -401,180 -178,21 -314,-62 -420,-146 -65,-52 -83,-78 -130,-164 -30,-55 -60,-163 -60,-232zm-3182 -6337c-11,-48 -17,-112 -24,-165 -3,-20 -11,-57 -16,-79 -6,-26 -18,-42 -20,-75 -8,-90 3,-31 -21,-75l-23 -256c-18,-227 -40,-458 -57,-686 -17,-225 -58,-468 -15,-688 58,-291 147,-410 337,-599 24,-23 74,-48 109,-73 76,-55 150,-82 250,-123 45,-18 256,-54 322,-55 116,-4 228,-14 344,-26 115,-12 232,-13 350,-23 576,-45 1158,-83 1732,-133 226,-20 466,-37 692,-50 119,-7 229,-17 347,-27 115,-11 234,-14 349,-24 198,-17 504,-53 702,-19 174,30 378,132 504,241 72,63 205,235 240,324l48 134c58,203 60,447 78,668 10,115 24,226 31,342l31 344c-23,16 -20,7 -31,29 -13,55 26,263 27,287 2,40 -7,46 1,93 34,23 35,17 38,63 1,31 5,57 7,88 4,59 5,123 11,185 10,119 29,246 32,362 4,129 18,245 29,370 11,122 16,243 27,361 22,241 44,490 62,734 4,60 16,109 23,175 9,75 15,440 6,502 41,40 23,12 31,86 4,34 6,73 9,112 19,276 122,1360 101,1523 -14,110 -68,266 -116,352 -31,57 -61,88 -93,138 -71,110 -142,156 -241,226 -267,187 -658,171 -958,199l-869 63c-138,9 -280,29 -420,35 -150,7 -292,23 -436,34 -145,11 -286,18 -428,31 -270,24 -602,37 -865,62 -147,13 -288,24 -436,33 -264,16 -590,86 -844,-19 -51,-21 -116,-45 -162,-69 -27,-15 -43,-31 -69,-50 -154,-113 -91,-79 -187,-161 -87,-75 -223,-338 -235,-456 -44,-420 -84,-864 -112,-1283 -4,-54 -15,-52 -23,-98 -6,-35 3,-60 0,-95 -2,-40 2,-73 -5,-115 -5,-31 -20,-52 -23,-88 -7,-73 6,-159 12,-230 7,-75 -14,-20 -21,-87 -3,-33 -4,-69 -6,-103l-126 -1499c-6,-68 -7,-146 -13,-218 -7,-86 -45,-355 -33,-426 9,-4 15,-6 26,-11l20 -12zm5651 -4561c126,-29 216,3 304,58 217,135 243,568 -134,672 -107,30 -215,0 -304,-59 -38,-26 -64,-60 -89,-102 -36,-59 -32,-53 -57,-125 -23,-68 -14,-88 -4,-160 18,-124 147,-252 284,-284zm-6560 4315l45 456c31,7 33,3 38,37 3,19 3,64 4,86l111 1404c11,118 24,421 45,533 6,34 1,54 0,86 0,54 16,106 15,150 -1,42 -6,109 -3,149 3,51 31,70 30,137 -3,135 70,925 82,1103 13,207 31,422 51,626 20,212 32,423 49,634 35,414 59,834 98,1251 19,206 33,409 59,613 17,138 155,369 234,449 77,79 176,173 276,223 33,16 89,39 124,51 208,69 390,57 614,42 216,-14 418,-31 632,-43 104,-6 207,-20 310,-27l1575 -119c209,-15 419,-32 629,-44 109,-6 208,-19 316,-27 106,-8 214,-11 319,-20 105,-9 201,-22 309,-27 212,-9 408,-33 634,-43 105,-5 211,-24 312,-30 109,-7 211,-7 315,-19 250,-28 667,-24 868,-155 158,-104 254,-161 349,-326 53,-92 65,-106 118,-215 31,-63 49,-210 54,-288 8,-120 2,-195 -9,-310 -27,-311 -44,-633 -75,-950 -20,-208 -31,-415 -49,-622 -19,-210 -35,-425 -48,-633 -7,-105 -20,-202 -27,-309 -7,-104 -11,-211 -23,-317 -24,-207 -30,-423 -51,-632l-60 -779c3,-32 15,-29 21,-58l4 -252c0,-60 -8,-108 -10,-167 -2,-61 -23,-82 -32,-132 -11,-60 -6,-88 -26,-142 -38,-104 -12,-201 -30,-295 -10,-55 -18,-79 -22,-144l-39 -476c-8,-103 -11,-209 -22,-311 -6,-56 -29,-268 -20,-310 14,-67 -15,-61 -15,-132 0,-63 -5,-102 -13,-161 -7,-54 -14,-94 -19,-148 -8,-74 -55,-120 -37,-284 9,-79 21,-3 9,-149l-75 -948c-17,-207 -36,-417 -48,-627 -5,-103 -21,-206 -26,-309 -16,-307 -51,-623 -74,-937 -15,-212 -37,-357 -156,-527 -68,-98 -35,-78 -145,-188 -186,-187 -455,-291 -732,-290 -275,1 -657,47 -947,68 -110,8 -213,9 -321,20 -311,30 -629,47 -937,71 -313,24 -628,54 -944,71 -107,5 -209,19 -315,27l-946 69c-207,14 -421,35 -628,50 -285,20 -1035,56 -1239,120 -89,28 -165,55 -230,102 -138,99 -41,6 -188,153 -93,93 -208,263 -248,435 -10,42 -27,89 -33,133 -27,226 35,881 57,1108 60,628 92,1256 150,1881 10,106 19,209 24,315l22 229c-5,30 -17,14 -40,40z"/>
    <path class="fil2" d="M4570 7c-47,9 -93,11 -139,20 -89,16 -349,64 -410,90 -73,32 -183,48 -259,75 -84,29 -163,58 -243,89 -218,85 -486,195 -690,310 -74,41 -139,82 -211,122 -192,109 -227,135 -403,263l-194 139c-115,105 -253,208 -356,311 -95,95 -319,329 -399,433 -12,16 -23,33 -34,46 -17,19 -24,23 -42,45 -56,72 -69,68 -144,181 -44,65 -95,130 -137,196l-133 201c-194,318 -304,548 -438,895 -29,77 -64,163 -91,241 -45,127 -110,393 -137,530 -78,402 -74,520 -107,892 -11,121 10,168 63,256 115,189 410,235 576,113 26,-19 76,-50 96,-71 135,-133 135,-335 151,-515 10,-110 23,-191 38,-295 71,-488 266,-1078 512,-1487l405 -594c118,-164 413,-457 571,-587 34,-28 57,-56 87,-80 37,-30 50,-49 86,-80 27,-22 70,-45 100,-66 67,-49 128,-92 196,-138l423 -243c77,-36 149,-67 229,-105 196,-93 662,-243 879,-286 48,-10 94,-12 142,-24 144,-38 297,-41 389,-111 34,-26 65,-40 88,-79 36,-61 87,-167 87,-247 0,-92 -39,-195 -82,-253 -19,-26 -59,-70 -79,-87 -31,-27 -61,-43 -101,-66 -71,-42 -206,-49 -289,-34z"/>
    <path class="fil2" d="M4752 1728c-109,21 -260,48 -361,84 -176,63 -306,104 -484,181 -123,54 -341,162 -443,233 -54,38 -73,40 -134,88 -40,31 -89,61 -129,93 -169,139 -386,321 -520,487l-160 181c-35,43 -57,83 -91,131 -336,486 -458,825 -604,1403 -12,50 -49,349 -48,406 1,64 23,124 51,173 51,86 22,67 95,127 38,31 87,63 142,80 111,34 289,24 365,-39 96,-78 150,-97 189,-255 15,-64 26,-119 35,-186 35,-269 97,-478 193,-704 54,-125 160,-320 227,-439 30,-53 64,-85 97,-134 46,-67 197,-240 258,-296 23,-21 37,-33 57,-55 40,-43 84,-69 123,-107 38,-38 72,-69 120,-101 50,-34 81,-63 130,-93 117,-72 300,-177 435,-231 56,-22 102,-39 160,-62 254,-101 481,-80 652,-245 20,-19 33,-32 50,-61l41 -70c12,-26 40,-153 36,-185 -18,-135 -59,-212 -145,-299 -59,-60 -221,-127 -337,-105z"/>
   </g>
  </g>
  <g id="_1538786687488">
   <g>
    <path class="fil3" d="M3796 9290c-3,-50 14,-103 22,-152 13,-79 36,-101 94,-168 12,-14 24,-36 37,-49 22,-22 77,-54 102,-73 115,-88 316,-177 486,-212 98,-20 188,-46 285,-65 93,-18 215,-21 316,-33 105,-13 221,-19 330,-20 308,-3 338,-13 659,24 229,27 451,106 634,241 170,125 218,427 218,658 -1,280 -18,620 -178,856 -129,190 -87,108 -279,245 -70,50 -277,137 -357,166 -112,41 -304,76 -419,105 -50,13 -103,11 -156,20 -49,7 -96,22 -146,28 -53,6 -104,7 -161,12 -227,20 -236,29 -473,19 -60,-2 -97,-16 -151,-24 -136,-18 -155,-29 -265,-83 -42,-20 -104,-90 -137,-125 -54,-60 -150,-180 -182,-255 -183,-431 -244,-625 -279,-1115zm7614 -1462c169,-12 452,27 611,73 29,8 38,14 62,25 23,11 40,14 64,23 46,19 73,47 102,73 25,23 71,67 86,88 125,169 141,509 139,736 -2,209 -31,411 -75,602 -10,41 -34,90 -47,127 -39,122 -55,132 -114,235 -24,43 -48,63 -80,94 -69,68 -112,86 -218,131 -147,61 -134,44 -263,86 -90,29 -509,82 -609,87 -155,8 -496,15 -643,0 -37,-3 -279,-39 -300,-47 -163,-59 -279,-87 -405,-205 -23,-22 -30,-23 -48,-39 -38,-34 -105,-156 -137,-212 -137,-236 -191,-557 -210,-838 -9,-135 -16,-191 40,-297 27,-51 36,-64 70,-104l83 -92c169,-196 693,-376 968,-427l447 -78c55,-5 106,-6 162,-13 51,-6 100,-15 153,-21 55,-6 108,-3 162,-7zm1772 -407c-64,-33 -397,-20 -496,-18 -169,3 -349,-7 -516,-1 -166,6 -325,13 -489,28 -194,18 -519,34 -712,64 -80,12 -145,20 -226,27 -76,7 -140,29 -226,37 -81,8 -335,63 -426,89 -192,54 -416,103 -599,162l-294 94c-36,10 -58,23 -93,35 -159,54 -130,48 -297,92 -113,30 -211,48 -327,61 -82,9 -145,15 -226,28 -78,13 -156,15 -237,25 -261,32 -703,93 -955,58 -205,-28 -485,-68 -682,-68 -170,0 -338,-3 -508,-4 -410,0 -757,31 -1161,87 -77,11 -144,29 -219,36 -143,13 -298,58 -442,72 -81,8 -140,29 -221,40 -41,5 -66,12 -103,24 -35,12 -68,12 -106,21 -133,31 -277,73 -413,103 -44,9 -69,8 -112,22 -33,10 -67,18 -102,25 -137,27 -146,34 -135,103 20,121 1,209 63,317 34,59 266,174 328,190 92,24 50,55 76,183 19,96 50,205 67,316l167 609c21,63 49,117 73,181 118,313 185,534 429,737 292,243 767,247 1139,206 233,-25 444,-73 669,-110 209,-34 415,-92 608,-160 288,-100 425,-223 604,-427 82,-93 209,-283 249,-392 12,-30 23,-64 34,-94 14,-34 23,-61 34,-93 56,-153 44,-152 84,-304 21,-80 22,-141 33,-220 15,-109 42,-354 84,-433 16,-31 36,-51 56,-79 135,-189 389,-295 616,-255 143,24 256,55 356,158 21,22 48,44 67,68 69,85 190,450 278,619 50,96 67,160 133,247 20,26 28,44 49,77 138,209 179,250 370,408l149 105c142,88 421,182 585,193 244,16 486,11 723,2 82,-3 168,-5 237,-8 62,-3 416,-43 462,-56 238,-72 285,-19 632,-201 17,-8 25,-10 44,-19 59,-27 129,-99 172,-145 16,-17 14,-11 32,-31 75,-88 142,-203 188,-328 75,-210 49,-213 89,-427 29,-156 48,-286 51,-445 3,-167 17,-326 8,-492 -2,-51 -12,-464 -6,-476 12,-23 121,-87 154,-109l124 -129c70,-86 35,-334 13,-425z"/>
    <path class="fil3" d="M9981 9591c118,0 158,-64 210,-131 14,-18 27,-34 47,-63 106,-155 518,-201 543,131 7,99 14,269 185,266 62,-1 121,-23 160,-57 50,-44 62,-67 64,-155 8,-341 -270,-711 -638,-711 -259,0 -425,76 -598,241 -51,49 -142,155 -159,253 -12,63 5,126 39,160 14,14 111,66 147,66z"/>
    <path class="fil3" d="M6032 9712c160,0 241,93 328,162 36,28 43,52 100,66 41,10 94,7 128,-13 83,-50 130,-97 117,-208 -7,-54 -33,-76 -57,-109 -98,-131 -220,-196 -389,-262 -164,-65 -391,-35 -537,29 -77,34 -142,88 -189,136 -41,41 -102,134 -126,200 -35,101 -50,140 -58,250 -6,92 -2,215 51,276 50,57 149,85 247,54 111,-35 113,-134 106,-218 -20,-216 71,-363 279,-363z"/>
    <path class="fil3" d="M9045 10626c-41,0 -328,26 -368,41 -37,13 -118,79 -27,144 69,50 276,-9 364,34 -16,69 -118,159 -162,203 -105,105 -379,179 -560,168 -254,-14 -263,-45 -451,-87 -52,-11 -81,-40 -150,-28 -177,31 176,320 664,320 182,0 184,3 380,-47 95,-24 203,-101 275,-169 23,-22 49,-44 73,-69 77,-79 71,-151 145,-147 22,38 38,76 59,121 80,173 207,47 159,-87 -89,-247 -114,-397 -401,-397z"/>
   </g>
  </g>
 </g>
</svg>
